<svg xmlns="http://www.w3.org/2000/svg" xmlns:xlink="http://www.w3.org/1999/xlink" width="768" height="1024" viewBox="0 0 768 1024">
  <defs>
    <clipPath id="clip-iPad_1">
      <rect width="768" height="1024"/>
    </clipPath>
  </defs>
  <g id="iPad_1" data-name="iPad – 1" clip-path="url(#clip-iPad_1)">
    <rect width="768" height="1024" fill="#fff"/>
    <path id="Path_29" data-name="Path 29" d="M331.422,760.4a109.6,109.6,0,0,0-14.207,6.648c-5.988,3.539-7.306,5.2-11.828,6.361a13.117,13.117,0,0,1-7.484,0s-1.024.783-.71,1.419a4.463,4.463,0,0,0,3.087,3.229,10.8,10.8,0,0,0,7.481.69c3.388-.635,8.72,2.234,13.62,1.278s6.855-2.308,10.04-2.514a7.76,7.76,0,0,1,5.438,1.235c1.121.661,2.078.742,5.167,1.278s4.869-3.853,4.869-3.853a24.574,24.574,0,0,0,1.313-5.728,61.2,61.2,0,0,0-.677-6.342s-8.427-1.533-10.671-2.17S331.422,760.4,331.422,760.4Z" transform="matrix(0.996, -0.087, 0.087, 0.996, -30.909, 34.054)" fill="#fce7d8" stroke="#fce7d8" stroke-width="1"/>
    <path id="Path_17" data-name="Path 17" d="M429.918,473.128s.872,1.761,2.149,4.494c2.011,4.3,5.108,11.292,5.36,13.905-.006-.029,1.98,7.025,2.017,7.257A65.021,65.021,0,0,0,441.065,507c.9,3.348-1.621,9.342-1.621,9.342s12.549,2.25,23.249,0,20.759,5.737,35.032-3.353,2.128-30.12,2.128-30.12l2.974-38.47s-22.294,19.541-26.367,21.627-5.2,3.64-13.767,7.1-17.143,4.51-19.638,5.182S429.918,473.128,429.918,473.128Z" transform="matrix(0.998, 0.07, -0.07, 0.998, 46.686, 104.575)" fill="#faf7f7" stroke="#f0eded" stroke-width="1"/>
    <path id="Path_1" data-name="Path 1" d="M453.719,248.19c0,7.437-85.469,277.171-85.469,277.171s-6.687,14.371,2.133,15.912S820.5,634.236,820.5,634.236s14.2,1.618,13.671-9.9,72.618-295.7,65.687-303.5-434.305-83.082-434.305-83.082S453.721,240.753,453.719,248.19Z" transform="matrix(-0.914, 0.407, -0.407, -0.914, 1087.113, 574.564)" fill="#3c3c3c" stroke="#3c3c3c" stroke-width="1"/>
    <path id="Path_2" data-name="Path 2" d="M414.068,249.695,434.9,272.308l-31.027,18.131-4.714-7.512L420,272.308l-11.625-16.028Z" transform="matrix(0.875, -0.485, 0.485, 0.875, -368.643, 351.043)" fill="#4bff67" stroke="#4bff67" stroke-width="1"/>
    <path id="Path_3" data-name="Path 3" d="M411.82,276.169l38.319,10.48-2.177,13.834L411.82,286.65Z" transform="matrix(-0.848, 0.53, -0.53, -0.848, 685.991, 422.025)" fill="#4bff67" stroke="#4bff67" stroke-width="1"/>
    <g id="Ellipse_1" data-name="Ellipse 1" transform="translate(93 336)" fill="#ff4545" stroke="#ff4545" stroke-width="1">
      <circle cx="9" cy="9" r="9" stroke="none"/>
      <circle cx="9" cy="9" r="8.5" fill="none"/>
    </g>
    <g id="Ellipse_2" data-name="Ellipse 2" transform="translate(118 331)" fill="#969696" stroke="#727272" stroke-width="1">
      <circle cx="9" cy="9" r="9" stroke="none"/>
      <circle cx="9" cy="9" r="8.5" fill="none"/>
    </g>
    <g id="Ellipse_3" data-name="Ellipse 3" transform="translate(143 327)" fill="#28b238" stroke="#115719" stroke-width="1">
      <circle cx="9" cy="9" r="9" stroke="none"/>
      <circle cx="9" cy="9" r="8.5" fill="none"/>
    </g>
    <path id="Path_4" data-name="Path 4" d="M434.8,345.017c.232-.413,5.454,17.206,5.454,17.206s14.98,19.858,23.993,12.516,12.563-11.583,13.146-12.516,7.256-17.9,7.766-24.788-9.646-43.4-32.3-28.542S434.566,345.43,434.8,345.017Z" transform="matrix(0.985, 0.174, -0.174, 0.985, 70.176, 64.265)" fill="#fce7d8" stroke="#fce7d8" stroke-width="1"/>
    <path id="Path_5" data-name="Path 5" d="M429.7,352.119c9,12.078,19.378-.318,20.147,0s19.032,1.223,17.277-5.856-1.811,12.5,10.214,14.17,0,13.253,0,13.253h0c.889-1.9,22.215,5.409,15.937-45.691-1.953-15.892-9.381-6.17-15.937-20.509-12.412-8.262-27.713,6.895-27.492,7.707.322,1.179-20.431,12.323-20.147,12.8S420.7,340.042,429.7,352.119Z" transform="translate(4 121)" fill="#646262" stroke="#646262" stroke-width="1"/>
    <path id="Path_6" data-name="Path 6" d="M483.658,308.637c6.525-10.718,1.158-9.521,8.884-18.334s22.793,13.189,31.652,15,23.487-3.64,21.684,3.338-11.351,8.107,0,8.333-16.048,25.916,0,16.009-1.687-.767-14.172,0-7.369-30.4-21.918-12.349-14.143-12.958-17.246-3.66-4.323,3.66-4.323,3.66Z" transform="matrix(0.695, 0.719, -0.719, 0.695, 384.047, -93.258)" fill="#646262" stroke="#646262" stroke-width="1"/>
    <path id="Path_9" data-name="Path 9" d="M448,397.207c-4.947-1.173-9.967.045-10.879,1.983s-3.644,1.2-5.549,7.848-3.658,7.761-7.114,16.418-6.606,14.618-6.857,22.306-.8,7.487,0,7.532,7.78.833,7.78.833L448,449.677l6.245-7.723,5.967-9.074s1.484-10.395,1.982-12.729a119.352,119.352,0,0,1,3.282-13.112c1.98-6.266,2.283-7.291,2.808-7.848s-4.352,5.574-4.39,6.152-12.41,16.366-13.284,16.421-10.355,7.529-10.773,8.3-13.906,10.766-13.874,10.86,6.806-19.123,7.332-19.157,7.75-8.992,7.75-9.611S448,397.207,448,397.207Z" transform="translate(19.144 118)" fill="#faf7f7" stroke="#faf7f7" stroke-width="1"/>
    <path id="Path_7" data-name="Path 7" d="M457.24,394.364c.873,2.731,1.568,3.54,0,6.264-5.789,10.049-8.355,13.887-8.355,13.887l22.832-17.769h0l-1.561-5.447v-7.137Z" transform="translate(-58.195 205.672) rotate(-10)" fill="#fce7d8" stroke="#fce7d8" stroke-width="1"/>
    <path id="Path_11" data-name="Path 11" d="M411.671,433.451c-25.213-5.948-37.757-8.266-37.757-8.266l-8.788-2.119s-.977-6.936-2.813-8.029-6.946-10.692-8.712-10.492-1.011,2.15-.791,3.867,3.372,3.3,3.372,3.3,2.878,3.505-1.4,3.327-6.826,2.445-11.375-3.327a20.885,20.885,0,0,0-10.58-7.165s-10.285-6.645-2.268,2.288,8.131,15.014,12.849,16.233,14.136,5.888,18.91,6.677,14.982,4.99,24.55,9.878,18.549,8.952,19.005,8.24.2-8.068,2.338-10.526S411.671,433.451,411.671,433.451Z" transform="matrix(0.5, -0.866, 0.866, 0.5, -103.316, 733.596)" fill="#fce7d8" stroke="#fce7d8" stroke-width="1"/>
    <path id="Path_8" data-name="Path 8" d="M471.757,395.217c4.743.1,7.338.727,7.624,1.133s3.833,1.587,4.163,2.379-23.719,21.594-23.719,21.594l-28.88,16.837,7.626-15.421,9.6-8.96,12.392-9.666Z" transform="translate(-63.028 217.172) rotate(-11)" fill="#e5f0ff" stroke="#e5f0ff" stroke-width="1"/>
    <path id="Path_16" data-name="Path 16" d="M411.671,416.205c-25.213,5.763-37.757,8.009-37.757,8.009l-8.788,2.053s-.977,6.72-2.813,7.779-6.946,10.359-8.712,10.165-1.011-2.083-.791-3.747,3.372-3.2,3.372-3.2,2.878-3.4-1.4-3.223-6.826-2.369-11.375,3.223a21,21,0,0,1-10.58,6.942s-10.285,6.438-2.268-2.216,8.131-14.546,12.849-15.727,14.136-5.7,18.91-6.469,14.982-4.834,24.55-9.57,18.549-8.672,19.005-7.983.2,7.816,2.338,10.2S411.671,416.205,411.671,416.205Z" transform="translate(142.973 5.164) rotate(22)" fill="#fce7d8" stroke="#fce7d8" stroke-width="1"/>
    <path id="Path_12" data-name="Path 12" d="M455.186,519.013a77.162,77.162,0,0,0-21.569,0c-10.595,1.747-23.049,2.856-38.23,6.3s-27.577,1.324-35.192,2.345-9.516,1.815-9.516,1.815,0,4.206,0,9.241-.386,7.171,0,13.421,2.669,7.085,2.669,7.085,20.745,4.305,34.415,5.2,33,6.888,33,6.888l10.7,2.353s5.189,20.335,7.995,26.074a156.461,156.461,0,0,1,5.993,15.4s7.692.366,9.74,0,7.484-6.8,7.484-6.8-6.706-3.846-8.085-10.74,0-11.415,0-11.415l27.223-12.516a60.527,60.527,0,0,0,5.639-12.267c2.625-7.641,2.691-8.208,2.691-8.208a97.769,97.769,0,0,1-3.8-17.874,85.561,85.561,0,0,1,0-17.323,46.826,46.826,0,0,0-5.268,16.328c-1.159,9.355-1.779,14.822-1.779,14.822L467.723,565l-21.04,4.525-8.085-1.392s.823-13.956,2.483-17.895,9.853-21.268,10.618-24.754A16.385,16.385,0,0,1,455.186,519.013Z" fill="#faf7f7" stroke="#faf7f7" stroke-width="1"/>
    <path id="Path_13" data-name="Path 13" d="M487.148,520.005a23.634,23.634,0,0,0-.758,3.527,17.8,17.8,0,0,0,.081,5.925c.926,4.506,4.417,11.935,4.417,11.935l-2.505-11.935Z" transform="translate(478.589 -157.131) rotate(42)" fill="#eae7e7" stroke="#eae7e7" stroke-width="1"/>
    <path id="Path_15" data-name="Path 15" d="M487.148,520.005a50.774,50.774,0,0,0-.758,5.28,39.721,39.721,0,0,0,.081,8.869c.926,6.745,4.417,17.866,4.417,17.866l-2.505-17.866Z" transform="translate(628.264 -123.986) rotate(55)" fill="#eae7e7" stroke="#eae7e7" stroke-width="1"/>
    <path id="Path_10" data-name="Path 10" d="M459.34,408.815C447.42,419.994,438.363,439.7,438.363,439.7l-9.717,6.051s-8.464,4.945-10.867,4.418-28.369-8.634-28.569-8.558-3.553.754-6.471,8.558,0,19.65,0,19.65,3.518,11.911,6.471,12.121,15.276,2.818,23.2,2.021,24.651-3.236,27.473-5.064,19.893-4.969,25.192-14.984,5.146-19.316,4.138-28.352-.725-19.678-5.266-23.2S459.34,408.815,459.34,408.815Z" transform="matrix(0.755, -0.656, 0.656, 0.755, -128.616, 509.022)" fill="#faf7f7" stroke="#faf7f7" stroke-width="1"/>
    <path id="Path_18" data-name="Path 18" d="M439.1,516.429a20.893,20.893,0,0,0,0,5.626c.434,2.855-.2,6.259,0,9.37s12.393,7.935,28.046,6.172-.93,1.655,25.132-6.172,12.985-5.237,13.056-15.9-2.625-6.579-2.625-6.579-4.525,5.131-9.4,6.579-17.263.9-17.263.9Z" transform="matrix(0.996, 0.087, -0.087, 0.996, 58.016, 82.654)" fill="#33335c" stroke="#33335c" stroke-width="1"/>
    <path id="Path_19" data-name="Path 19" d="M487.148,520.005a23.634,23.634,0,0,0-.758,3.527,17.8,17.8,0,0,0,.081,5.925c.926,4.506,4.417,11.935,4.417,11.935l-2.505-11.935Z" transform="translate(304.36 1308.676) rotate(-122)" fill="#eae7e7" stroke="#eae7e7" stroke-width="1"/>
    <path id="Path_20" data-name="Path 20" d="M449.584,652.05l-14.28-3.885a7.061,7.061,0,0,1-4.655,2.226c-2.762.065-3.942-.9-10.189,0s-11.339,2.03-12.338,1.333,2.435-3.275,2.435-3.275-.519,0-.553,0c0,0-1.862,0-1.658,0,.176-.026-.565-.243-7.967-1.784-4.042-.841-8.171-2.913-9.928-3.294-.892-.5-2.132.049-8.455-2.193-13.926-4.94-17.673,13.518-17.673,13.518s-10.291,17.085-18.665,29.048a233.384,233.384,0,0,0-14.137,23.006s-6.018,2.68-6.435,5.152-4.225,6.693-4.225,6.693L305.894,743.29a1.262,1.262,0,0,0,0,2.25c1.624,1.187,18.126,12.977,33.437,16.119S379.1,769.709,382,772.607s21.721.228,25.4,0,17.68,9.765,17.68,9.765-.951-5.275-1.615-9.765,2.7.228,21.925,0,14.8-13.089,14.8-13.089l14.049,11.533s4.731,3.715,5.9,3.964c3.695.791,24.815,1.17,38.829,1.472,17.049.367,39.2-3.248,47.807-3.88s15.712-2.411,32.676,0,35.759.972,41.169-3.8-1.588-9.159-1.788-13.789-7.524-33.877-15.2-38.092-35.3-10.414-35.3-10.414a144.332,144.332,0,0,0-16.723-3.1l-.824-.526c-6.7-4.27-15.411-9.656-15.411-9.656s2.581-1.32,0-13.078-4.769-15.659-11.5-20.824-24.912-11.033-24.912-11.033.993,2.376,0,2.712,1.737.65-11.943,3.69-17.871,3.623-20.46,4.631-6.112-.179-8.215,0-11.518.59-18.155-1.649A34.738,34.738,0,0,1,449.584,652.05Z" fill="#33335c" stroke="#33335c" stroke-width="1"/>
    <path id="Path_21" data-name="Path 21" d="M501.948,527.469a64.9,64.9,0,0,1-11.517,3.228c-5.554.885-5.319,1.649-5.319,1.649s-.569,13.106,2.34,17.017,4.153,9.823,5.732,10.108,6.9-14.132,5.879-17.623S501.948,527.469,501.948,527.469Z" transform="translate(1252.707 715.42) rotate(136)" fill="#fcf9f9" stroke="#33335c" stroke-width="1"/>
    <path id="Path_22" data-name="Path 22" d="M459.665,697.434c-5.781,13.679-6.3,21.116-6.3,21.116L456,731.262s1.017-15.593,1.844-20.218S459.665,697.434,459.665,697.434Z" fill="#1e2753" stroke="#1e2753" stroke-width="1"/>
    <path id="Path_23" data-name="Path 23" d="M456.516,740.844l-2.167,10.68,6.4,9.186s-.94,1.03-2.3-7.528-1.012-7.447-1.012-7.447Z" fill="#1e2753" stroke="#1e2753" stroke-width="1"/>
    <path id="Path_24" data-name="Path 24" d="M378.149,640.362s16.486-.47,25.828.682a114.757,114.757,0,0,0,17.7.724s-6.089,2.828-8.862,5.026-3.769,1.419-3.769,1.419Z" transform="translate(-1 1)" fill="#33335c" stroke="#33335c" stroke-width="1"/>
    <path id="Path_25" data-name="Path 25" d="M441.515,643.352s5.8,1.295,6.736,1.962,1.017,6.464,1.017,6.464l-13.15-4.294Z" transform="translate(-1 1)" fill="#33335c" stroke="#33335c" stroke-width="1"/>
    <path id="Path_27" data-name="Path 27" d="M435.989,538.614,454.18,544.1a39.353,39.353,0,0,0,20.3,2.025c10.851-1.983,18.282-10.714,18.282-10.714l-14.14,3.2s-13.262,1.63-20.9,0-18.1-5.165-18.1-5.165Z" transform="translate(48.738 85.68) rotate(4)" fill="#1e2753" stroke="#1e2753" stroke-width="1"/>
    <path id="Path_28" data-name="Path 28" d="M510.621,523.766l4.847,4.872-11.753,4.371v-4.371l6.906-2.333Z" transform="translate(138.669 23.066) rotate(13)" fill="#1e2753" stroke="#1e2753" stroke-width="1"/>
    <path id="Path_30" data-name="Path 30" d="M423.839,686.385s-2.42-3.983-2.195-7.612.728-13.156,1.221-11.826,1.766,6.515,3.175,7.871,10.934,11.83,10.934,11.83a36.54,36.54,0,0,0-7.828-.485Z" transform="translate(577.184 1507.75) rotate(-149)" fill="#1e2753" stroke="#1e2753" stroke-width="1"/>
    <path id="Path_31" data-name="Path 31" d="M425.223,726.34s-3.936-12.117-3.569-23.157,1.184-40.023,1.986-35.977,2.871,19.82,5.163,23.946,17.782,35.991,17.782,35.991a32.708,32.708,0,0,0-12.73-1.476C426.594,726.23,425.223,726.34,425.223,726.34Z" transform="matrix(0.883, 0.469, -0.469, 0.883, 372.338, -68.91)" fill="#1e2753" stroke="#1e2753" stroke-width="1"/>
    <text id="_Arisa_Fukuzaki" data-name="©️Arisa Fukuzaki" transform="translate(525 796)" fill="#707070" font-size="9" font-family="AppleColorEmoji, Apple Color Emoji"><tspan x="0" y="0">©️</tspan><tspan y="0" font-family="Helvetica">Arisa Fukuzaki</tspan></text>
  </g>
</svg>
