<svg xmlns="http://www.w3.org/2000/svg" xmlns:xlink="http://www.w3.org/1999/xlink" width="768" height="1024" viewBox="0 0 768 1024">
  <defs>
    <clipPath id="clip-iPad_1">
      <rect width="768" height="1024"/>
    </clipPath>
  </defs>
  <g id="iPad_1" data-name="iPad – 1" clip-path="url(#clip-iPad_1)">
    <rect width="768" height="1024" fill="#fff"/>
    <path id="Path_35" data-name="Path 35" d="M439.076,516.606a24.681,24.681,0,0,0,0,5.746c.383,2.917-.179,6.393,0,9.572s10.933,8.106,24.742,6.3-.82,1.691,22.171-6.3,11.455-5.349,11.518-16.242-2.316-6.72-2.316-6.72-3.992,5.241-8.29,6.72-15.229.924-15.229.924Z" transform="translate(-278.63 64.3) rotate(-8)" fill="#ebe0d2" stroke="#ebe0d2" stroke-width="1"/>
    <path id="Path_1" data-name="Path 1" d="M434.8,345.017c.232-.413,5.454,17.206,5.454,17.206s14.98,19.858,23.993,12.516,12.563-11.583,13.146-12.516,7.256-17.9,7.766-24.788-9.646-43.4-32.3-28.542S434.566,345.43,434.8,345.017Z" transform="matrix(0.985, 0.174, -0.174, 0.985, 66.176, -57.735)" fill="#fce7d8" stroke="#fce7d8" stroke-width="1"/>
    <path id="Path_2" data-name="Path 2" d="M429.7,352.119c9,12.078,19.378-.318,20.147,0s19.032,1.223,17.277-5.856-1.811,12.5,10.214,14.17,0,13.253,0,13.253h0c.889-1.9,22.215,5.409,15.937-45.691-1.953-15.892-9.381-6.17-15.937-20.509-12.412-8.262-27.713,6.895-27.492,7.707.322,1.179-20.431,12.323-20.147,12.8S420.7,340.042,429.7,352.119Z" fill="#4a4848" stroke="#4a4848" stroke-width="1"/>
    <path id="Path_3" data-name="Path 3" d="M483.658,308.637c6.525-10.718,1.158-9.521,8.884-18.334s22.793,13.189,31.652,15,23.487-3.64,21.684,3.338-11.351,8.107,0,8.333-16.048,25.916,0,16.009-1.687-.767-14.172,0-7.369-30.4-21.918-12.349-14.143-12.958-17.246-3.66-4.323,3.66-4.323,3.66Z" transform="matrix(0.695, 0.719, -0.719, 0.695, 377.047, -208.258)" fill="#4a4848" stroke="#4a4848" stroke-width="1"/>
    <path id="Path_4" data-name="Path 4" d="M457.432,393.1c.893,2.393,1.6,3.1,0,5.488-5.921,8.8-8.546,12.166-8.546,12.166l23.354-15.567h0l-1.6-4.771v-6.252Z" fill="#fce7d8" stroke="#fce7d8" stroke-width="1"/>
    <path id="Path_9" data-name="Path 9" d="M429.918,473.128s.818,1.761,2.016,4.494c1.887,4.3,4.792,11.292,5.029,13.905-.005-.029,1.858,7.025,1.892,7.257A68.824,68.824,0,0,0,440.376,507c.84,3.348-1.521,9.342-1.521,9.342s11.774,2.25,21.813,0,19.477,5.737,32.867-3.353,2-30.12,2-30.12l2.791-38.47s-20.917,19.541-24.738,21.627-4.878,3.64-12.917,7.1-16.084,4.51-18.424,5.182,20.037-3.655,20.037-3.655L444.7,406.114l-2.457,7.059-3.389,7.645-1.892-14.7-1.57,4.01Z" transform="translate(4.618)" fill="#33335c" stroke="#33335c" stroke-width="1"/>
    <path id="Path_10" data-name="Path 10" d="M439.085,515.782a19.024,19.024,0,0,0,0,5.184c.4,2.631-.189,5.768,0,8.635s11.56,7.313,26.161,5.688-.867,1.525,23.443-5.688,12.113-4.826,12.179-14.654-2.449-6.063-2.449-6.063-4.221,4.729-8.766,6.063-16.1.834-16.1.834Z" transform="translate(3.437 -10.023)" fill="#33335c" stroke="#33335c" stroke-width="1"/>
    <text id="_Arisa_Fukuzaki" data-name="©️Arisa Fukuzaki" transform="translate(475 602)" fill="#707070" font-size="8" font-family="AppleColorEmoji, Apple Color Emoji"><tspan x="0" y="0">©️</tspan><tspan y="0" font-family="Helvetica">Arisa Fukuzaki</tspan></text>
    <path id="Path_23" data-name="Path 23" d="M434.8,345.017c.232-.413,5.454,17.206,5.454,17.206s14.98,19.858,23.993,12.516,12.563-11.583,13.146-12.516,7.256-17.9,7.766-24.788-9.646-43.4-32.3-28.542S434.566,345.43,434.8,345.017Z" transform="translate(-92.251 -102.602) rotate(17)" fill="#fce7d8" stroke="#fce7d8" stroke-width="1"/>
    <path id="Path_24" data-name="Path 24" d="M457.432,393.1c.893,2.393,1.6,3.1,0,5.488-5.921,8.8-8.546,12.166-8.546,12.166l23.354-15.567h0l-1.6-4.771v-6.252Z" transform="translate(-213 -3)" fill="#fce7d8" stroke="#fce7d8" stroke-width="1"/>
    <path id="Path_25" data-name="Path 25" d="M429.7,352.119c9,12.078,19.378-.318,20.147,0s19.032,1.223,17.277-5.856-1.811,12.5,10.214,14.17,0,13.253,0,13.253h0c.889-1.9,22.215,5.409,15.937-45.691-1.953-15.892-9.381-6.17-15.937-20.509-12.412-8.262-27.713,6.895-27.492,7.707.322,1.179-20.431,12.323-20.147,12.8S420.7,340.042,429.7,352.119Z" transform="translate(-213)" fill="#4a4848" stroke="#4a4848" stroke-width="1"/>
    <path id="Path_28" data-name="Path 28" d="M400.8,430.9c-21.956-5.464-32.879-7.594-32.879-7.594l-7.653-1.947s-.851-6.372-2.45-7.376-6.049-9.822-7.587-9.638-.881,1.975-.688,3.553,2.937,3.029,2.937,3.029,2.506,3.22-1.223,3.056-5.944,2.246-9.906-3.056a18.074,18.074,0,0,0-9.213-6.582s-8.956-6.1-1.975,2.1,7.081,13.792,11.189,14.912,12.31,5.408,16.467,6.133,13.047,4.584,21.378,9.073,16.152,8.223,16.55,7.569.176-7.411,2.036-9.669S400.8,430.9,400.8,430.9Z" transform="translate(150.687 1068.437) rotate(-123)" fill="#fce7d8" stroke="#fce7d8" stroke-width="1"/>
    <path id="Path_29" data-name="Path 29" d="M429.918,475.465s.764,1.9,1.881,4.859c1.76,4.652,4.471,12.211,4.691,15.037,0-.031,1.733,7.6,1.765,7.847a85.149,85.149,0,0,0,1.419,8.884c.784,3.62-1.419,10.1-1.419,10.1s10.984,2.433,20.35,0,18.17,6.2,30.663-3.626S491.132,486,491.132,486l2.6-41.6s-19.514,21.132-23.079,23.387-4.55,3.937-12.05,7.682-15.006,4.877-17.189,5.6S429.918,475.465,429.918,475.465Z" transform="translate(-210.679)" fill="#ebe0d2" stroke="#ebe0d2" stroke-width="1"/>
    <path id="Path_30" data-name="Path 30" d="M264.153,393.953a11.96,11.96,0,0,0,3.873.5c.638-.053,5.2.385,6.555,1.633,5.451,2.143,5.628,2.379,8.806,3.742a106.738,106.738,0,0,1,10.1,5.813s5.81,8.591,7.106,16.812,2.018,22.949,2.938,30.46,1.22,8.253,1.22,8.253l.795,3.939.309,2.68.644,3.093s3.873,16.7,5.335,25.764,1.663,23.4,1.663,23.4.9,2.047-3.383,3.311-11.1-2.435-11.1-2.435-4.4-21.111-5.612-24.274-6.7-16.219-6.7-16.219l-.827-4.617v-3.056l-2.495-1.871v-4.437s-34.735,19.783-51.552,12.719c-8.238-3.46-.426-31.564-4.7-36.542a5.6,5.6,0,0,1-1.085-2.017c-2.822-8.222,15.824-24.019,14.918-22.924-2.715,3.282-16.615,18.434-16.615,18.434V434.58Z" fill="#ebe0d2" stroke="#ebe0d2" stroke-width="1"/>
    <path id="Path_31" data-name="Path 31" d="M234.281,396.218s-6.1,9.032-7.473,14.348-2.1,10.334-2.1,10.334-1.262,8.061,0,13.809a59.523,59.523,0,0,0,4.341,13.139c1.274,2.456-.414,10.324,0,14.185s-.219,6.88,0,10.834,1.637,5.617,2.082,11.319a86.164,86.164,0,0,1,0,11.534s.463,6.869,1.043,10.58.119,2.543-1.043,2.431-3.43.361-5.563,0a16.18,16.18,0,0,1-3.186-.8s2.517-5.412,2.326-7.252-.442-2.314-1.081-5.94-2.064-10.553-2.064-10.553-7.549-23.166-8.084-24.678-3.052-9-4.442-14.118-3.927-9.664-2.429-16.148a44.314,44.314,0,0,1,4.362-11.334l5.894-9.957a47.228,47.228,0,0,1,1.352-6.306c.681-1.845,3.622-2.894,6.492-3.977S234.281,396.218,234.281,396.218Z" transform="translate(3.861 9.896)" fill="#ebe0d2" stroke="#ebe0d2" stroke-width="1"/>
    <path id="Path_32" data-name="Path 32" d="M227.987,459.03s-.361,11.434,0,15.382,1.346,8.983,1.346,8.983A79,79,0,0,1,231.5,501.65c-.169,9.068.965-7.667.965-7.667s-1.162-8.994-2.712-18.339A138.458,138.458,0,0,1,227.987,459.03Z" transform="translate(31.612 5.629) rotate(3)" fill="#bfb7ac" stroke="#bfb7ac" stroke-width="1"/>
    <g id="Ellipse_2" data-name="Ellipse 2" transform="translate(231 483)" fill="#a08964" stroke="#a08964" stroke-width="1">
      <circle cx="2" cy="2" r="2" stroke="none"/>
      <circle cx="2" cy="2" r="1.5" fill="none"/>
    </g>
    <g id="Ellipse_4" data-name="Ellipse 4" transform="translate(205.736 335.699) rotate(-21)" fill="#c31f1f" stroke="#c31f1f" stroke-width="1">
      <ellipse cx="38.5" cy="16.5" rx="38.5" ry="16.5" stroke="none"/>
      <ellipse cx="38.5" cy="16.5" rx="38" ry="16" fill="none"/>
    </g>
    <g id="Ellipse_3" data-name="Ellipse 3" transform="translate(208.526 316.727) rotate(-17)" fill="#c31f1f" stroke="#c31f1f" stroke-width="1">
      <ellipse cx="36" cy="13" rx="36" ry="13" stroke="none"/>
      <ellipse cx="36" cy="13" rx="35.5" ry="12.5" fill="none"/>
    </g>
    <g id="Ellipse_5" data-name="Ellipse 5" transform="matrix(0.998, -0.07, 0.07, 0.998, 268.697, 305.722)" fill="#c31f1f" stroke="#c31f1f" stroke-width="1">
      <ellipse cx="7.5" cy="14.5" rx="7.5" ry="14.5" stroke="none"/>
      <ellipse cx="7.5" cy="14.5" rx="7" ry="14" fill="none"/>
    </g>
    <g id="Ellipse_6" data-name="Ellipse 6" transform="matrix(0.999, 0.035, -0.035, 0.999, 209.657, 322.762)" fill="#c31f1f" stroke="#c31f1f" stroke-width="1">
      <ellipse cx="7.5" cy="16" rx="7.5" ry="16" stroke="none"/>
      <ellipse cx="7.5" cy="16" rx="7" ry="15.5" fill="none"/>
    </g>
    <path id="Path_33" data-name="Path 33" d="M210.308,332.514s-.886,7.255.412,8.17a19.041,19.041,0,0,1,3.179,2.255c.189.258,1.489.169,2.718.826.466.249-5.386-1.924-4.259-1.78.675.09,1.751,1.1,3.584,1.182a37.8,37.8,0,0,0,7.687-.228c1.063-.246,7.937-2.255,7.937-2.255s12.441-4.812,16.581-6.733c1.867-.867,4.575-2.162,7.358-3.519s5.552-2.746,6.156-3.131c1.1-.7,10.347-6.385,13.992-10.064a24.973,24.973,0,0,0,5.283-8.957s-4.321,7.966-5.521,9.408-13.616,9.7-16.544,11.393-12.94,6.018-15,6.743-21.836,9.362-26.464,8.212-6.3-2.243-6.935-3.65S210.308,332.514,210.308,332.514Z" fill="none" stroke="#d6d6d6" stroke-width="1"/>
    <path id="Path_34" data-name="Path 34" d="M222.146,357.788s-.379,11.309-.338,18.094a76.729,76.729,0,0,0,2.5,19.432c1.871,7.921-4.036,14.567-1.808,22.694s-6.346,15.235-2.029,18.354S233.5,438.574,236.7,438.7s9.332-1.662,9.332-1.662,5.388,2.321,8.317,2.656,11.458-5.718,13.99-7.68,1.534-6.562,2.7-8.421.451-6.981,1.883-9.5,5.723-2.9,5.069-8.614-3.676-11.416-3.315-12.637-2.625-4.834-3.638-5.628-6.692.948-7.569,0-5.153.912-5.153.912l2,4.717-2,11.627L248.3,415.3H236.032l-1-7.4,1-6.019,3.315-3.183,5.76-4.395-1.2-2.982s-2.746,2.222-4.192,2.1-5.693-2.416-7.236-3.539-6.12-7.577-6.93-9.194-3.031-5.922-3.049-7.035-.884-9.141-.694-11.006S222.146,357.788,222.146,357.788Z" fill="#f2f2f2" stroke="#f2f2f2" stroke-width="1"/>
    <path id="Path_36" data-name="Path 36" d="M228.861,385.118a35.067,35.067,0,0,1,1.811,7.825c.123,3.048,0,6.89,0,6.89s-1.569,3.236-1.319,5.164,5.548,12.018,5.548,12.018l7.246-1.7h-6.167s-1.955-7.113-1.078-9.355.42-3.8,2.551-6.123a20.311,20.311,0,0,1,5.515-3.905l2.446-1.588-1.5-3.263a8.06,8.06,0,0,1-2.981,1.866c-1.324.262-4.165-.642-4.165-.642s-3.873-2.686-4.5-3.269S228.861,385.118,228.861,385.118Z" fill="#e8e8e8" stroke="#e8e8e8" stroke-width="1"/>
    <path id="Path_37" data-name="Path 37" d="M228.083,459.03s-.577,5.321,0,7.159a20.51,20.51,0,0,0,2.152,4.181s3.743,4.276,3.472,8.5,1.544-3.568,1.544-3.568-1.858-4.186-4.338-8.535A21.883,21.883,0,0,1,228.083,459.03Z" transform="translate(536.217 13.484) rotate(60)" fill="#bfb7ac" stroke="#bfb7ac" stroke-width="1"/>
    <path id="Path_38" data-name="Path 38" d="M242.866,459.03s1.211,6.956,0,9.357a26.075,26.075,0,0,1-4.515,5.465s-7.853,5.589-7.285,11.105-3.239-4.664-3.239-4.664a132.772,132.772,0,0,1,9.1-11.157C242.128,463.452,242.866,459.03,242.866,459.03Z" transform="matrix(0.848, -0.53, 0.53, 0.848, -220.065, 179.434)" fill="#bfb7ac" stroke="#bfb7ac" stroke-width="1"/>
    <g id="Ellipse_1" data-name="Ellipse 1" transform="translate(230 463)" fill="#a08964" stroke="#a08964" stroke-width="1">
      <circle cx="2" cy="2" r="2" stroke="none"/>
      <circle cx="2" cy="2" r="1.5" fill="none"/>
    </g>
    <path id="Path_40" data-name="Path 40" d="M233.031,396.212s-5.832,9.526-7.141,15.132-2,10.9-2,10.9-1.205,8.5,0,14.564a67.352,67.352,0,0,0,4.148,13.857c1.218,2.59-.4,10.888,0,14.96s-.209,7.256,0,11.426,1.564,5.923,1.989,11.937a100.269,100.269,0,0,1,0,12.164s.442,7.244,1,11.158.114,2.682-1,2.564-3.277.381-5.316,0a14.326,14.326,0,0,1-3.044-.843s2.406-5.708,2.223-7.648-.422-2.44-1.033-6.265-1.973-11.13-1.973-11.13-7.214-24.431-7.725-26.026-2.917-9.492-4.244-14.89-3.753-10.192-2.321-17.03a49.6,49.6,0,0,1,4.168-11.953l5.632-10.5a54.341,54.341,0,0,1,1.292-6.651c.651-1.946,3.461-3.052,6.2-4.195s11.774-2.416,11.774-2.416l-6.437,10.621h-2.289Z" transform="translate(219.61 5.742)" fill="#33335c" stroke="#33335c" stroke-width="1"/>
    <path id="Path_41" data-name="Path 41" d="M448.926,411.885v1.023l25-16.969,13.039-1.086L451.976,431.8l-5-18.893Z" transform="matrix(0.999, 0.035, -0.035, 0.999, 12.709, -16.094)" fill="#33335c" stroke="#33335c" stroke-width="1"/>
    <path id="Path_42" data-name="Path 42" d="M478.574,393.649l11.2,1.775-3.536,1.242h-2.186s-3.477-.837-5.878-1.242a28.757,28.757,0,0,1-3.465-.743Z" fill="#fff" stroke="#fff" stroke-width="1"/>
    <path id="Path_43" data-name="Path 43" d="M380.262,239.445c0,1.2-14.041,44.724-14.041,44.724s-1.1,2.319.35,2.568,73.947,15,73.947,15,2.333.261,2.246-1.6,11.93-47.714,10.791-48.972-71.35-13.406-71.35-13.406S380.262,238.245,380.262,239.445Z" transform="translate(1007.651 598.652) rotate(154)" fill="#bababa" stroke="#bababa" stroke-width="1"/>
    <g id="Ellipse_7" data-name="Ellipse 7" transform="translate(515 529)" fill="#fff" stroke="#fff" stroke-width="1">
      <circle cx="6.5" cy="6.5" r="6.5" stroke="none"/>
      <circle cx="6.5" cy="6.5" r="6" fill="none"/>
    </g>
    <path id="Path_7" data-name="Path 7" d="M396.354,428.165c-20.625-4.943-30.887-6.87-30.887-6.87l-7.189-1.761s-.8-5.764-2.3-6.672-5.682-8.885-7.127-8.719-.827,1.786-.647,3.214,2.759,2.741,2.759,2.741,2.354,2.913-1.149,2.765-5.584,2.032-9.305-2.765a17.048,17.048,0,0,0-8.655-5.955s-8.414-5.522-1.856,1.9,6.652,12.477,10.511,13.491,11.564,4.893,15.469,5.549,12.256,4.147,20.083,8.209,15.173,7.439,15.547,6.847.165-6.7,1.913-8.747S396.354,428.165,396.354,428.165Z" transform="matrix(-0.485, -0.875, 0.875, -0.485, 332.907, 1056.142)" fill="#fce7d8" stroke="#fce7d8" stroke-width="1"/>
    <path id="Path_39" data-name="Path 39" d="M264.153,393.953a13.482,13.482,0,0,0,3.873.444c.638-.047,5.2.339,6.555,1.436,5.451,1.884,5.628,2.092,8.806,3.29a111.115,111.115,0,0,1,10.1,5.11s5.81,7.553,7.106,14.78,2.018,20.175,2.938,26.778,1.22,7.255,1.22,7.255l.795,3.463.309,2.356.644,2.719s3.873,14.682,5.335,22.649S313.5,504.8,313.5,504.8s.9,1.8-3.383,2.91-11.1-2.141-11.1-2.141-4.4-18.559-5.612-21.34-6.7-14.258-6.7-14.258l-.827-4.059v-2.687l-2.495-1.644v-3.9s-34.735,17.392-51.552,11.181c-8.238-3.042-.426-27.748-4.7-32.124a4.778,4.778,0,0,1-1.085-1.773c-2.822-7.228,15.824-21.115,14.918-20.152-2.715,2.885-16.615,16.205-16.615,16.205v-1.351Z" transform="translate(217 3.211)" fill="#33335c" stroke="#33335c" stroke-width="1"/>
    <text id="_2017" data-name="2017" transform="translate(205 563)" fill="#707070" font-size="30" font-family="SignPainter-HouseScriptSemibold, SignPainter" font-weight="600"><tspan x="0" y="0">2017</tspan></text>
    <text id="NOW" transform="translate(423 563)" fill="#707070" font-size="30" font-family="SignPainter-HouseScriptSemibold, SignPainter" font-weight="600"><tspan x="0" y="0">NOW</tspan></text>
  </g>
</svg>
