<svg xmlns="http://www.w3.org/2000/svg" xmlns:xlink="http://www.w3.org/1999/xlink" width="768" height="1024" viewBox="0 0 768 1024">
  <defs>
    <clipPath id="clip-iPad_1">
      <rect width="768" height="1024"/>
    </clipPath>
  </defs>
  <g id="iPad_1" data-name="iPad – 1" clip-path="url(#clip-iPad_1)">
    <rect width="768" height="1024" fill="#fff"/>
    <path id="Path_9" data-name="Path 9" d="M728.907,546.979C951.219,528.786,976.636,443.442,970.84,390.093s-43.361-148.8-107.977-117.1S634.7,445.708,657.7,502.14,728.907,546.979,728.907,546.979Z" transform="translate(-516.548 -108.23)" fill="#f8f5e9" stroke="#f8f5e9" stroke-width="1" opacity="0.64"/>
    <path id="Path_1" data-name="Path 1" d="M118.389,308.823s10.321-39.21,29.018-47.991c10.227-4.8,15.874-6.72,22.895-8.033,5.313-1,19.165-.575,29.668,3.469,23.184,8.929,25.794,15.19,31.357,26.648s10.047,25.3,7.267,41.831-8.057,33.239-16.673,39.973S201.4,386.033,170.3,380.4s-40.828-12.61-47.094-28.845S118.389,308.823,118.389,308.823Z" transform="translate(18 6)" fill="#639" stroke="#639" stroke-width="1"/>
    <path id="Path_2" data-name="Path 2" d="M220.8,292.929s-5.16-14.861-19.051-14.3-24.005,3.889-32.472,12.415-9.848,23.465-9.848,23.465-2.78,11.358,0,21.869S177.1,359.344,177.1,359.344s11.171,7.926,24.646,5.968,29.29-16.281,29.29-16.281,4.911-12.144,3.191-21.853-5.791-10.244-5.791-10.244l-19.251,10.244,4.115,9.2,10.185-6s4.4,8.478,0,11.605-8.845,10.636-21.74,10.349-21.9-.842-27.719-10.349-4.821-26.279-2.973-31.425,4.223-16.066,10.772-17.631,7.554-3.393,18.017-1.881,9.343,7.485,9.343,7.485Z" fill="#fff" stroke="#fff" stroke-width="1"/>
    <path id="Path_3" data-name="Path 3" d="M161.062,304.309,218.742,355.9s.385,1.178-3.82,3.213S159.528,311.1,159.528,311.1s-.807,1.479.574-3.438S161.062,304.309,161.062,304.309Z" transform="translate(0.584 0.47)" fill="#fff" stroke="#fff" stroke-width="1"/>
    <path id="Path_4" data-name="Path 4" d="M170.217,322.121l-11.04-9.783s-.753.138-1.314,6.3a19.326,19.326,0,0,0,0,3.981c.069.429,0,.5,0,.5l45.147,42.609s1.6.464,5.982-1.625,3.8-2.4,3.8-2.4Z" fill="#639" stroke="#639" stroke-width="1"/>
    <path id="Path_5" data-name="Path 5" d="M157.758,323.928l44.221,41.256-43.742-34.712Z" transform="translate(0.434)" fill="#fff" stroke="#fff" stroke-width="1"/>
    <path id="Path_6" data-name="Path 6" d="M753.8,284.544c305.52-50.31,121.462-79.917,130.052-128.412S1071.219-3.4,1165.106,101.84s-253.433,288.9-270.344,332.942S791.61,449.509,791.891,450.865,448.282,334.855,753.8,284.544Z" transform="translate(-549 134.41)" fill="#d6d3ff" stroke="#d6d3ff" stroke-width="1" opacity="0.435"/>
    <path id="Path_7" data-name="Path 7" d="M724.391,267.672c208.633,18.213,232.485,103.654,227.046,157.063S910.744,573.7,850.1,541.968,635.976,369.058,657.569,312.562,724.391,267.672,724.391,267.672Z" transform="translate(-266 98.71)" fill="#edddfa" stroke="#edddfa" stroke-width="1" opacity="0.64"/>
    <path id="Path_8" data-name="Path 8" d="M139.414,550.618c48.856-53.6,118.124-66.367,188.017-66.5s120.561,14.749,149.41,41-33.386,45.762-11.8,67.992,61.456,26.4,84.362,35.047,38.251,21.077,35.573,27.059-19.573,26.837-54.125,30.767-60.724,17.161-131.532,12.839,4.874,7.723-146.4-16.781S139.414,550.618,139.414,550.618Z" transform="translate(-59 9)" fill="rgba(205,236,252,0.71)" stroke="rgba(205,236,252,0.71)" stroke-width="1"/>
    <path id="Path_10" data-name="Path 10" d="M392.632,241.026c0,2.327-26.069,86.732-26.069,86.732s-2.04,4.5.651,4.979S504.5,361.826,504.5,361.826s4.332.506,4.17-3.1,22.15-92.53,20.035-94.969-132.47-26-132.47-26S392.632,238.7,392.632,241.026Z" transform="translate(3 51)" fill="#3c3c3c" stroke="#3c3c3c" stroke-width="1"/>
    <path id="Path_11" data-name="Path 11" d="M405.672,249.695l9.1,12.181-13.549,9.766-2.059-4.046,9.1-5.72-5.076-8.633Z" transform="translate(3 55)" fill="#4bff67" stroke="#4bff67" stroke-width="1"/>
    <path id="Path_12" data-name="Path 12" d="M411.82,276.169l18.67,3.388-1.061,4.472-17.609-4.472Z" transform="translate(6 55)" fill="#4bff67" stroke="#4bff67" stroke-width="1"/>
    <path id="Path_13" data-name="Path 13" d="M336.151,159.8s-2.892-25.5,6.363-41.269,17.833-14.189,17.833-14.189,5.054,2.04,7.543,10.405a100.528,100.528,0,0,1,2.857,15.079c1.169,9.444,1.562,21.225-.623,29.974-3.571,14.3-9.208,30.456-18.637,33.914S336.151,159.8,336.151,159.8Z" transform="translate(-3 58)" fill="#61dbfb" stroke="#61dbfb" stroke-width="1"/>
    <path id="Path_14" data-name="Path 14" d="M336.068,152.844s-2.329-22.305,5.125-36.095,14.363-12.41,14.363-12.41,4.07,1.784,6.075,9.1a94.675,94.675,0,0,1,2.3,13.188c.941,8.26,1.258,18.564-.5,26.216-2.876,12.5-7.416,26.637-15.011,29.661S336.068,152.844,336.068,152.844Z" transform="translate(1 63.24)" fill="#f8f5e9" stroke="#f8f5e9" stroke-width="1"/>
    <path id="Path_15" data-name="Path 15" d="M336.151,159.8s-2.892-25.5,6.363-41.269,17.833-14.189,17.833-14.189,5.054,2.04,7.543,10.405a100.528,100.528,0,0,1,2.857,15.079c1.169,9.444,1.562,21.225-.623,29.974-3.571,14.3-9.208,30.456-18.637,33.914S336.151,159.8,336.151,159.8Z" transform="translate(41.711 438.883) rotate(-60)" fill="#61dbfb" stroke="#61dbfb" stroke-width="1"/>
    <path id="Path_16" data-name="Path 16" d="M336.068,152.844s-2.329-22.305,5.125-36.095,14.363-12.41,14.363-12.41,4.07,1.784,6.075,9.1a94.675,94.675,0,0,1,2.3,13.188c.941,8.26,1.258,18.564-.5,26.216-2.876,12.5-7.416,26.637-15.011,29.661S336.068,152.844,336.068,152.844Z" transform="translate(48.828 438.281) rotate(-60)" fill="#f8f5e9" stroke="#f8f5e9" stroke-width="1"/>
    <path id="Path_17" data-name="Path 17" d="M336.151,159.8s-2.892-25.5,6.363-41.269,17.833-14.189,17.833-14.189,5.054,2.04,7.543,10.405a100.528,100.528,0,0,1,2.857,15.079c1.169,9.444,1.562,21.225-.623,29.974-3.571,14.3-9.208,30.456-18.637,33.914S336.151,159.8,336.151,159.8Z" transform="translate(402.06 588.114) rotate(-121)" fill="#61dbfb" stroke="#61dbfb" stroke-width="1"/>
    <path id="Path_18" data-name="Path 18" d="M336.068,152.844s-2.329-22.305,5.125-36.095,14.363-12.41,14.363-12.41,4.07,1.784,6.075,9.1a94.675,94.675,0,0,1,2.3,13.188c.941,8.26,1.258,18.564-.5,26.216-2.876,12.5-7.416,26.637-15.011,29.661S336.068,152.844,336.068,152.844Z" transform="translate(399.037 581.784) rotate(-120)" fill="#f8f5e9" stroke="#f8f5e9" stroke-width="1"/>
    <g id="Ellipse_1" data-name="Ellipse 1" transform="translate(342 201)" fill="#61dbfb" stroke="#61dbfb" stroke-width="1">
      <ellipse cx="6.5" cy="6" rx="6.5" ry="6" stroke="none"/>
      <ellipse cx="6.5" cy="6" rx="6" ry="5.5" fill="none"/>
    </g>
    <path id="Path_19" data-name="Path 19" d="M339.724,124.385a59.342,59.342,0,0,0-1.748,8.042c-.114,2.245-2.477,14.519-1.111,23.989s2,13.756,2,13.756l3.563-1.06a72.111,72.111,0,0,1-2.032-12.7c-.163-5.394-1.292-14.763,0-20.614s2.032-10.259,2.032-10.259Z" transform="translate(-3 59)" fill="#61dbfb" stroke="#61dbfb" stroke-width="1"/>
    <path id="Path_20" data-name="Path 20" d="M338.684,124.385s-1.117,5.8-1.195,8.042-1.693,14.519-.76,23.989,1.37,13.756,1.37,13.756l2.435-1.06a103.041,103.041,0,0,1-1.389-12.7c-.112-5.394-.883-14.763,0-20.614s1.389-10.259,1.389-10.259Z" transform="matrix(-0.996, -0.087, 0.087, -0.996, 689.855, 383.414)" fill="#61dbfb" stroke="#61dbfb" stroke-width="1"/>
    <path id="Path_21" data-name="Path 21" d="M337.9,124.385s-.727,5.382-.777,7.467-1.1,13.481-.494,22.274.891,12.773.891,12.773l1.584-.985s-.831-6.78-.9-11.788-.574-13.708,0-19.14.9-9.526.9-9.526Z" transform="translate(695.807 42.578) rotate(131)" fill="#61dbfb" stroke="#61dbfb" stroke-width="1"/>
    <path id="Path_22" data-name="Path 22" d="M338.556,124.385a59.112,59.112,0,0,0-1.127,6.53c-.074,1.823-1.6,11.789-.716,19.478S338,161.562,338,161.562l2.3-.861a72.589,72.589,0,0,1-1.31-10.309c-.105-4.38-.832-11.987,0-16.738s1.31-8.33,1.31-8.33Z" transform="matrix(0.559, -0.829, 0.829, 0.559, 26.679, 417.621)" fill="#61dbfb" stroke="#61dbfb" stroke-width="1"/>
    <path id="Path_23" data-name="Path 23" d="M389.08,241.426c0,2.613-22.616,97.385-22.616,97.385s-1.769,5.049.564,5.591,119.1,32.663,119.1,32.663a3.067,3.067,0,0,0,3.617-3.477c-.141-4.045,19.215-103.9,17.381-106.634S392.21,237.763,392.21,237.763,389.081,238.813,389.08,241.426Z" transform="translate(848.06 510.11) rotate(149)" fill="#f0db4f" stroke="#f0db4f" stroke-width="1"/>
    <path id="Path_24" data-name="Path 24" d="M324.9,475.24l8.374-3.228S341.63,492.085,343,497.44c.682,2.672,1.462,4.78,1.451,7.034-.006,1.64-.8,3.422-.772,4.02.065,1.194-2.767,6.376-7.5,6.485s-7.58.674-11.28-4.066-3.2-5.78-3.2-5.78l6.62-2.749a10.275,10.275,0,0,0,2.641,2.749c1.527.986,3.586,1.366,4.68,0s.372-8.062-1.734-12.854-3.022-7.08-4.841-10.641A39.7,39.7,0,0,0,324.9,475.24Z" stroke="#000" stroke-width="1"/>
    <path id="Path_25" data-name="Path 25" d="M366.008,468.021s-.529-2.5-4.344-4.4a9.668,9.668,0,0,0-12.035,2.312c-3.234,3.924.688,10.482.688,10.482s3.056,4.134,7.169,5.507,5.877.13,9.728,4.144,4,8.987,0,10.019-7.172,1.534-10.87,0a44.122,44.122,0,0,1-5.2-2.439l-1.515,6.413a52.272,52.272,0,0,0,7.857,3.748c4.111,1.5,10.245,1.805,13.958-1.284s7.062-8.117,4.891-12.572-3.5-7.738-7.321-10.714-12.36-3.021-13.187-6.726.1-4.005,1.66-4.954,4.178,1.923,4.178,1.923Z" stroke="#000" stroke-width="1"/>
    <g id="Ellipse_2" data-name="Ellipse 2" transform="translate(522 414)" fill="#e535ab" stroke="#e535ab" stroke-width="1">
      <ellipse cx="9.5" cy="9" rx="9.5" ry="9" stroke="none"/>
      <ellipse cx="9.5" cy="9" rx="9" ry="8.5" fill="none"/>
    </g>
    <g id="Ellipse_3" data-name="Ellipse 3" transform="translate(522 532)" fill="#e535ab" stroke="#e535ab" stroke-width="1">
      <ellipse cx="9.5" cy="9" rx="9.5" ry="9" stroke="none"/>
      <ellipse cx="9.5" cy="9" rx="9" ry="8.5" fill="none"/>
    </g>
    <g id="Ellipse_4" data-name="Ellipse 4" transform="translate(575 442)" fill="#e535ab" stroke="#e535ab" stroke-width="1">
      <ellipse cx="9.5" cy="9" rx="9.5" ry="9" stroke="none"/>
      <ellipse cx="9.5" cy="9" rx="9" ry="8.5" fill="none"/>
    </g>
    <g id="Ellipse_5" data-name="Ellipse 5" transform="translate(575 494)" fill="#e535ab" stroke="#e535ab" stroke-width="1">
      <ellipse cx="9.5" cy="9" rx="9.5" ry="9" stroke="none"/>
      <ellipse cx="9.5" cy="9" rx="9" ry="8.5" fill="none"/>
    </g>
    <g id="Ellipse_6" data-name="Ellipse 6" transform="translate(466 442)" fill="#e535ab" stroke="#e535ab" stroke-width="1">
      <ellipse cx="9.5" cy="9" rx="9.5" ry="9" stroke="none"/>
      <ellipse cx="9.5" cy="9" rx="9" ry="8.5" fill="none"/>
    </g>
    <g id="Ellipse_7" data-name="Ellipse 7" transform="translate(466 503)" fill="#e535ab" stroke="#e535ab" stroke-width="1">
      <ellipse cx="9.5" cy="9" rx="9.5" ry="9" stroke="none"/>
      <ellipse cx="9.5" cy="9" rx="9" ry="8.5" fill="none"/>
    </g>
    <path id="Path_26" data-name="Path 26" d="M531.579,431.568l-49.414,80.144,92.98-2.41-42.064-75.038Z" fill="none" stroke="#e535ab" stroke-width="1"/>
    <path id="Path_27" data-name="Path 27" d="M531.579,431.568l-49.414,75.144,92.98-2.26L533.081,434.1Z" transform="translate(0 5)" fill="none" stroke="#e535ab" stroke-width="1"/>
    <path id="Path_28" data-name="Path 28" d="M541.491,436.917l-52.222,79.2H482.6l56.01-84.654Z" transform="translate(-5.612 -6.241)" fill="#e535ab" stroke="#e535ab" stroke-width="1"/>
    <path id="Path_29" data-name="Path 29" d="M536.881,436.441l-48.134,72.286H482.6l51.626-77.262Z" transform="translate(1198.534 207.477) rotate(115)" fill="#e535ab" stroke="#e535ab" stroke-width="1"/>
    <path id="Path_30" data-name="Path 30" d="M539.608,436.908l-50.552,79.069H482.6l54.219-84.513Z" transform="translate(636.554 -178.75) rotate(56)" fill="#e535ab" stroke="#e535ab" stroke-width="1"/>
    <path id="Path_31" data-name="Path 31" d="M482.164,444.51l41.191-19.287.957,2.468-41.551,19.375Z" fill="#e535ab" stroke="#e535ab" stroke-width="1"/>
    <path id="Path_32" data-name="Path 32" d="M482.164,444.51l41.191-19.287.957,2.468-41.551,19.375Z" transform="translate(534.007 -229.351) rotate(47)" fill="#e535ab" stroke="#e535ab" stroke-width="1"/>
    <path id="Path_33" data-name="Path 33" d="M482.164,444.51l41.191-19.287.957,2.468-41.551,19.375Z" transform="matrix(-0.438, 0.899, -0.899, -0.438, 1196.848, 215.03)" fill="#e535ab" stroke="#e535ab" stroke-width="1"/>
    <path id="Path_34" data-name="Path 34" d="M482.164,444.51l41.191-19.287.957,2.468-41.551,19.375Z" transform="matrix(0.438, -0.899, 0.899, 0.438, -137.371, 744.259)" fill="#e535ab" stroke="#e535ab" stroke-width="1"/>
    <path id="Path_35" data-name="Path 35" d="M482.164,446.1l46.021-20.875,1.069,2.671-46.424,20.97Z" transform="matrix(0.616, 0.788, -0.788, 0.616, 535.518, -138.038)" fill="#e535ab" stroke="#e535ab" stroke-width="1"/>
    <path id="Path_36" data-name="Path 36" d="M482.164,448.81l48.857-23.587,1.135,3.018-49.284,23.694Z" transform="translate(1142.127 858.505) rotate(169)" fill="#e535ab" stroke="#e535ab" stroke-width="1"/>
    <path id="Path_37" data-name="Path 37" d="M389.356,241.573c0,2.718-22.884,101.288-22.884,101.288s-1.79,5.252.571,5.815,120.518,33.972,120.518,33.972,3.8.591,3.66-3.616,19.443-108.06,17.588-110.908-116.285-30.361-116.285-30.361S389.357,238.855,389.356,241.573Z" transform="translate(561.818 1189.131) rotate(-139)" fill="#f1502f" stroke="#f1502f" stroke-width="1"/>
    <g id="Ellipse_8" data-name="Ellipse 8" transform="translate(424 621)" fill="#fff" stroke="#fff" stroke-width="1">
      <ellipse cx="12" cy="11.5" rx="12" ry="11.5" stroke="none"/>
      <ellipse cx="12" cy="11.5" rx="11.5" ry="11" fill="none"/>
    </g>
    <g id="Ellipse_9" data-name="Ellipse 9" transform="translate(422 691)" fill="#fff" stroke="#fff" stroke-width="1">
      <circle cx="12" cy="12" r="12" stroke="none"/>
      <circle cx="12" cy="12" r="11.5" fill="none"/>
    </g>
    <g id="Ellipse_10" data-name="Ellipse 10" transform="translate(455 662)" fill="#fff" stroke="#fff" stroke-width="1">
      <circle cx="12" cy="12" r="12" stroke="none"/>
      <circle cx="12" cy="12" r="11.5" fill="none"/>
    </g>
    <path id="Path_38" data-name="Path 38" d="M417.714,598.726l45.3,64.746-4.183,4.939L413.3,602.054Z" transform="translate(-1 1)" fill="#fff" stroke="#fff" stroke-width="1"/>
    <path id="Path_39" data-name="Path 39" d="M416.754,598.726,452.185,653.1l-3.272,4.148L413.3,601.521Z" transform="matrix(0.819, 0.574, -0.574, 0.819, 440.106, -97.384)" fill="#fff" stroke="#fff" stroke-width="1"/>
    <path id="Path_40" data-name="Path 40" d="M173.386,664.478s-2.933,8.209,0,22.969,8.887,25.286,18.712,33.737,10.888,11.729,20.4,12.4,15.629-2.377,24.145-12.4,15.746-26.672,18.017-31.051c1.052-2.465,1.186-7.42,2.183-13.794a97.915,97.915,0,0,0,1.161-13.424c0-8.344,3.589-15.82,0-29.982s-27.652-28.688-37.827-29.614-26.355-.2-32.223,4.646-14.792,13.957-16.991,20.789S173.386,664.478,173.386,664.478Z" transform="translate(-10 -53)" fill="#fcf3ed" stroke="#fcf3ed" stroke-width="1"/>
    <path id="Path_41" data-name="Path 41" d="M162.714,553.156s-16.377-1.844-18.821,6,3.04,18.183,3.04,18.183-14.673,8.139-15.353,18.414S143.893,615,143.893,615s6.941,3.4,6.788,7.723-6,6.626-6.788,12.866,9.945,18.03,9.945,18.03-2.47,7.577-8.092,8.422,13.8-14.635,13.8-14.635-8.023-5.5-5.71-9.5,10.8-10.442,10.8-10.442,5.121-7.136,2.957-12.466-8.043-16.168-8.043-16.168.256-9.194,8.043-11.143,4.224-13.957,4.224-13.957,2.5-16.763,8.654-9.554,16.819,0,16.819,0,5.29,15.346,19.121,20.329,16.448,14.326,16.448,14.326-4.19,8.067,3.29,18.588S247.4,627.464,247.4,627.464a23.777,23.777,0,0,1-1.986,8.123c-1.857,4.079,7.088-4.09,7.088-4.09s9.807-8.349,9.654-19.146,7.1-19.752,7.1-19.752,5.574-9.534,0-21.8-12.5-14.195-12.5-14.195,4.064-7.7,0-14.359-9.8-19.428-23.9-15.411a29.409,29.409,0,0,1-24.047-3.15s-13.962-9.116-21.665-2.862-6.676,16.837-6.676,16.837-9.74-10.776-12.878,0S162.714,553.156,162.714,553.156Z" fill="#4b4b4b" stroke="#4b4b4b" stroke-width="1"/>
    <path id="Path_42" data-name="Path 42" d="M263,613.841s6.93-9.854,16.44-7.094,8.331,13.884,8.331,13.884-6.022,6.282,0,8.165,12.42-1.688,13.654,6.075-8.588,13.156-8.588,13.156-6.554,5.91,4.243,8.859,18.8,3.985,16.2,8.828-8.832-13.308-8.832-13.308-5.327-7.968-16.677-2.46,12.3-12.3-5.24-9.585-24.729,15.253-28.821,7.666-4.274-14.073,0-14.89,0-8.489,0-8.489Z" transform="matrix(0.788, 0.616, -0.616, 0.788, 435.383, -20.962)" fill="#4b4b4b" stroke="#4b4b4b" stroke-width="1"/>
    <path id="Path_44" data-name="Path 44" d="M195.983,680.218s-.007-.01,1.3,5.169-3.385,12.669-3.385,12.669l30.118-.444s-2.9-6.386-3.4-9.332,4.954-17.628,4.954-17.628-5.988,7.137-11.007,8.771-9.668,2.542-12.281,2.329A31.141,31.141,0,0,1,195.983,680.218Z" fill="#fcf3ed" stroke="#fcf3ed" stroke-width="1"/>
    <path id="Path_45" data-name="Path 45" d="M196.984,682.882c5.7,3.33,3.6,2.225,5.277,2.714s6.694-1.312,7.394-1.5,7.462-3.294,7.462-3.294l8.4-9.569s-5.773,5.419-8.4,6.876-11.448,3.767-11.448,3.767a18.4,18.4,0,0,1-3.408,0c-1.171-.2-6.911-2.062-6.911-2.062Z" fill="#fad5b5" stroke="#fad5b5" stroke-width="1"/>
    <path id="Path_47" data-name="Path 47" d="M285.92,776.209l26.091-8.621s10.253-4.127,19.29-2.883,18.071,2.2,18.9,8.841-3.595,15.531-9.266,17.737-15.216,3.956-28.922,3.2a225.723,225.723,0,0,0-28.351.579,22.083,22.083,0,0,0,1.193-4.7C284.853,788.973,285.92,776.209,285.92,776.209Z" transform="translate(-1 4.049)" fill="#fcf3ed" stroke="#fcf3ed" stroke-width="1"/>
    <path id="Path_48" data-name="Path 48" d="M224.146,695.855s21.064,1.133,27.389,0,15.406-4.6,31.536-4.306,24.4,7.038,27.617,10.459,1.556,3.813,11.144,12.224,12.606,5.646,14.793,14.225-4.466,3.128,5.473,12.1,11.049,9.286,9.006,12.989-6.993,4.943-2.833,7.475,21.415,1.755,21.89,8.889c.114,1.719,1.122,3.813,1.289,5.432.4,3.852-.243,5.805-2.313,9.335-2.728,4.651-15.05,11.862-20.866,12.02s-9.417-.625-6.173-2.1,7.864-9.92,7.864-9.92.972-3.515,0-5.31-6.221-6.843-18.658-6.261-21.64,2.342-30.154,5.221-12.685,4.055-14.165,4.11-2.635,0-2.635,0l7.455-75.294s.572-8.185,0-8.409-67.125-1.1-67.125-1.1Z" fill="#001c7b" stroke="#001c7b" stroke-width="1"/>
    <path id="Path_49" data-name="Path 49" d="M349.311,695.855s-17.884,1.133-23.255,0-13.08-4.6-26.776-4.306-20.716,7.038-23.449,10.459-1.321,3.813-9.462,12.224-10.7,5.646-12.56,14.225,3.792,3.128-4.647,12.1-9.381,9.286-7.647,12.989,5.938,4.943,2.405,7.475-18.183,1.755-18.585,8.889c-.1,1.719-.953,3.813-1.095,5.432-.338,3.852.206,5.805,1.964,9.335,2.316,4.651,12.778,11.862,17.716,12.02s8-.625,5.241-2.1-6.677-9.92-6.677-9.92-.826-3.515,0-5.31,5.282-6.843,15.842-6.261,18.374,2.342,25.6,5.221,10.77,4.055,12.027,4.11,2.237,0,2.237,0l-6.33-75.294s-.486-8.185,0-8.409,56.993-1.1,56.993-1.1Z" transform="translate(-155.005)" fill="#001c7b" stroke="#001c7b" stroke-width="1"/>
    <path id="Path_43" data-name="Path 43" d="M396.477,241c0,2.309-29.808,86.036-29.808,86.036s-2.332,4.461.744,4.939S524.4,360.83,524.4,360.83s4.954.5,4.768-3.072,25.326-91.787,22.909-94.207S400.6,237.763,400.6,237.763,396.478,238.691,396.477,241Z" transform="translate(-295.132 525.894) rotate(-9)" fill="#bababa" stroke="#bababa" stroke-width="1"/>
    <g id="Ellipse_11" data-name="Ellipse 11" transform="translate(198 738)" fill="#fff" stroke="#fff" stroke-width="1">
      <circle cx="12" cy="12" r="12" stroke="none"/>
      <circle cx="12" cy="12" r="11.5" fill="none"/>
    </g>
    <path id="Path_50" data-name="Path 50" d="M223.909,697.309l-.452-2s5.384.694,8.624.808,6.472,0,6.472,0l-.533,1.193Z" transform="translate(0.368 -0.028)" fill="#fcf3ed" stroke="#fcf3ed" stroke-width="1"/>
    <path id="Path_51" data-name="Path 51" d="M194.238,697.2l1.047-1.822s-9.55,1.047-15.092.979-6.668-.154-6.668-.154l.842,1Z" transform="translate(0 -0.101)" fill="#fcf3ed" stroke="#fcf3ed" stroke-width="1"/>
    <path id="Path_52" data-name="Path 52" d="M117.98,796.12l-22.014-1.073s-3.312-1.821-4.38-3.959-3.8-5.264-3.839-5.936-1.751-1.248,0-4.745,7.112-6.263,8.814-6.547a64.913,64.913,0,0,1,11.172,0c2.667.356,12.425,2.056,12.425,2.056s-3.183,16.9-3.111,17.817A7.705,7.705,0,0,0,117.98,796.12Z" fill="#fcf3ed" stroke="#fcf3ed" stroke-width="1"/>
    <path id="Path_53" data-name="Path 53" d="M304.124,739.8s8.855-1.189,13.03,0,15.863-4.414,15.863-4.414h3.819l3.5,3.463a12.59,12.59,0,0,0-7.848,0c-4,1.434-8.417,7.208-8.417,7.208s-4.876-2.662-8.253-2.581-6.355,0-6.355,0Z" fill="#001352" stroke="#001352" stroke-width="1"/>
    <path id="Path_54" data-name="Path 54" d="M304.124,736.759a45.1,45.1,0,0,1,7.288,0c2.335.37,8.872-1.375,8.872-1.375h2.136l1.96,1.079a12.4,12.4,0,0,0-4.39,0,14.706,14.706,0,0,0-4.707,2.245,19.191,19.191,0,0,0-4.616-.8c-1.889.025-3.554,0-3.554,0Z" transform="translate(-161.012 122.918) rotate(-14)" fill="#001352" stroke="#001352" stroke-width="1"/>
    <path id="Path_55" data-name="Path 55" d="M304.124,738.4s6.327-.811,9.31,0,11.334-3.011,11.334-3.011H327.5l2.5,2.363a9.4,9.4,0,0,0-5.608,0c-2.856.978-6.014,4.917-6.014,4.917s-3.484-1.816-5.9-1.761-4.541,0-4.541,0Z" transform="translate(-457.396 180.971) rotate(-21)" fill="#001352" stroke="#001352" stroke-width="1"/>
    <path id="Path_56" data-name="Path 56" d="M482.164,444.51l41.191-19.287.957,2.468-41.551,19.375Z" transform="translate(0 2)" fill="#e535ab" stroke="#e535ab" stroke-width="1"/>
    <path id="Path_57" data-name="Path 57" d="M482.164,444.51l41.191-19.287.957,2.468-41.551,19.375Z" transform="matrix(0.438, -0.899, 0.899, 0.438, -135.371, 744.259)" fill="#e535ab" stroke="#e535ab" stroke-width="1"/>
    <path id="Path_58" data-name="Path 58" d="M482.164,446.1l46.021-20.875,1.069,2.671-46.424,20.97Z" transform="matrix(0.616, 0.788, -0.788, 0.616, 536.518, -139.038)" fill="#e535ab" stroke="#e535ab" stroke-width="1"/>
    <path id="Path_59" data-name="Path 59" d="M482.164,448.81l48.857-23.587,1.135,3.018-49.284,23.694Z" transform="translate(1140.127 857.505) rotate(169)" fill="#e535ab" stroke="#e535ab" stroke-width="1"/>
    <path id="Path_60" data-name="Path 60" d="M482.164,444.51l41.191-19.287.957,2.468-41.551,19.375Z" transform="matrix(-0.438, 0.899, -0.899, -0.438, 1194.848, 215.03)" fill="#e535ab" stroke="#e535ab" stroke-width="1"/>
    <path id="Path_61" data-name="Path 61" d="M482.164,444.51l41.191-19.287.957,2.468-41.551,19.375Z" transform="translate(534.007 -226.351) rotate(47)" fill="#e535ab" stroke="#e535ab" stroke-width="1"/>
    <text id="_Arisa_Fukuzaki" data-name="©️Arisa Fukuzaki" transform="translate(485 744)" fill="#707070" font-size="13" font-family="AppleColorEmoji, Apple Color Emoji"><tspan x="0" y="0">©️</tspan><tspan y="0" font-family="Helvetica">Arisa Fukuzaki</tspan></text>
  </g>
</svg>
