<svg xmlns="http://www.w3.org/2000/svg" xmlns:xlink="http://www.w3.org/1999/xlink" width="768" height="1024" viewBox="0 0 768 1024">
  <defs>
    <clipPath id="clip-iPad_1">
      <rect width="768" height="1024"/>
    </clipPath>
  </defs>
  <g id="iPad_1" data-name="iPad – 1" clip-path="url(#clip-iPad_1)">
    <rect width="768" height="1024" fill="#fff"/>
    <path id="Path_1" data-name="Path 1" d="M101.735,396.555s19.512-50.368,61.507-58.676,68.9,34.67,142.4,0,123.217-56.705,122.787-55.86-7.8,17.394,6.039,55.86,53.073,97.274,54.209,97.539-54.555,33.982-91.151,45.523-47.02,35.982-99.21,24.371S241.9,491.1,227.412,497.9s-64.17,53.422-64.17,53.422-25.779-17.862-49.89-60.475-21.53-76.74-21.53-76.74Z" fill="#1f1a1a" stroke="#1f1a1a" stroke-width="1"/>
    <path id="Path_2" data-name="Path 2" d="M103,468.65c26.779-39.928,32.022-46.637,32.022-46.637s22.1-26.939,35.516-29.558,29.816,1.826,34.764,2.256,25.543,7.551,54.443,4.83,42.885-10.586,59.69-17.734,113.121-48.9,113.121-48.9,12.479,31.05,16.647,38.766,10.19,17.962,10.19,17.962L342.41,441.106s-5.983,4.519-29.837,9.684-58.792-3.973-58.792-3.973-39.9-10.51-57.051,2.414-9.4,5.7-38.356,35.878c-22.5,23.452-25.031,32.933-25.112,35.973h0s-14.044-18.717-20.955-31.42S103,468.65,103,468.65Z" fill="#f71919" stroke="#f71919" stroke-width="1"/>
    <path id="Path_3" data-name="Path 3" d="M133.477,521.29s6.89-23.749,39.945-50.99c3.382-2.787,5.811-6,8.682-8.733a106.079,106.079,0,0,1,10.515-8.55c14.387-10.636,16.875-7.933,18.829-8.562,2.611-.841,18.047-1.427,27.315,0s31.483,8.683,57.437,8.562,52.271-13.959,52.271-13.959l111.892-48.922s8.627,15.586,18.48,30.179,10.552,15.779,10.552,15.779-61.78,35.875-80.665,41.8a252.39,252.39,0,0,0-33.053,12.963s-24.436,16.112-36.33,17.375-24.854,2.584-55.405-4.883-44.541-11.363-53.8-6.239-2.36-.475-23.118,15.741-43.24,38.92-43.24,38.92-12.106-9.256-17.125-14.8S133.477,521.29,133.477,521.29Z" fill="#ffb100" stroke="#ffb100" stroke-width="1"/>
    <path id="Path_4" data-name="Path 4" d="M370.87,453.626c-32.384-25.359-50.545-16.1-57.712,3.239s8.672,45.858,8.672,45.858a53.7,53.7,0,0,0,30.1,22.79c20.993,6.28,33.766,6.2,53.746-7.935s26.055-39.362,25.052-40.558,3.005-12.963-10.043-20.155S370.87,453.626,370.87,453.626Z" fill="#d57936" stroke="#d57936" stroke-width="1"/>
    <path id="Path_6" data-name="Path 6" d="M398.813,496.2s-17.266,1.2-18.81-13.72,4.839-17.2,4.839-17.2,13.874-1.362,22.044,4.945,7.142,9,7.229,9.072-1,8.38-3.634,11.683S398.813,496.2,398.813,496.2Z" fill="#fff" stroke="#fff" stroke-width="1"/>
    <path id="Path_7" data-name="Path 7" d="M365.114,484.8a68.241,68.241,0,0,0-18.619,10.729c-8.309,7.043-7.914,8.816-7.914,8.816l8.6,7.109s4.639,5.085,19.13,6.427,14.888,0,14.888,0-.92-11.773-7.022-17.493S365.114,484.8,365.114,484.8Z" fill="#fff" stroke="#fff" stroke-width="1"/>
    <path id="Path_5" data-name="Path 5" d="M328.582,482.065s-.313-.486-.94-1.589c-2.064-3.622-7.823-15.078-2.718-21.2,6.211-7.448,18.693-4.6,18.693-4.6a17.8,17.8,0,0,1,13.506,7.02c5.678,7.248-8.567,15.792-8.567,15.792s-6.824,4.208-13.361,4.578S328.582,482.065,328.582,482.065Z" fill="#ffb100" stroke="#ffb100" stroke-width="1"/>
    <path id="Path_8" data-name="Path 8" d="M340.305,506.271s13.234-.413,18.3-2.889,12.955-6.73,12.955-6.73l-2.925-5.578-3.351-6.593a45.175,45.175,0,0,0-13.976,6.593c-6.26,4.648-13.466,11.337-13.466,12.308S340.305,506.271,340.305,506.271Z" fill="#ffb100" stroke="#ffb100" stroke-width="1"/>
    <path id="Path_9" data-name="Path 9" d="M382.795,491.161l13.934-4.958s.572-.074,7.21-3.378,9.475-6.8,9.475-6.8-5.1-6.4-9.475-8.387a34.341,34.341,0,0,0-9.03-2.36,95.48,95.48,0,0,0-10.262-.69,10.158,10.158,0,0,0-4.8,7.241c-.7,5.058-.339,11.261.7,14.369A23.6,23.6,0,0,0,382.795,491.161Z" fill="#ffb100" stroke="#ffb100" stroke-width="1"/>
    <path id="Path_10" data-name="Path 10" d="M326.327,479.079s-5.179-10.128-3.845-15.873,10.854-9.366,10.854-9.366a28.047,28.047,0,0,1,11.677,0c6.2,1.381,12.712,7.3,12.712,7.3s-7.747-5.087-12.712-5.087-6.192-.424-11.677,1.759a12.229,12.229,0,0,0-7.009,6.791,37.961,37.961,0,0,0,0,6.016A83.445,83.445,0,0,1,326.327,479.079Z" fill="#b15800" stroke="#b15800" stroke-width="1"/>
    <path id="Path_11" data-name="Path 11" d="M384.906,492.734s-3.1-.822-4.47-5.07-1.667-14.89-.638-16.7c.477-.839.766-2.689,1.88-4.267a9,9,0,0,1,3.227-2.451c.57-.276,4.183-.334,7.369,0,2.417.253,5.013.811,5.013.811a32.413,32.413,0,0,1,5.771,1.64c2.75,1.115,10.9,9.265,10.9,9.265s-9.543-7.178-14.236-7.576-10.373-1.086-13.006,0-4.331,3.072-4.406,4.466a31.717,31.717,0,0,0,0,9.287C383.1,486.3,384.906,492.734,384.906,492.734Z" fill="#b15800" stroke="#b15800" stroke-width="1"/>
    <path id="Path_12" data-name="Path 12" d="M342.483,508.45a5.681,5.681,0,0,1-3.325-2.078,8.982,8.982,0,0,1-1.839-3.124s3.542-6.552,12.514-11.881a77.693,77.693,0,0,1,15.6-7.314s-10.063,6.285-14.909,10.99S342.483,508.45,342.483,508.45Z" fill="#b15800" stroke="#b15800" stroke-width="1"/>
    <path id="Path_13" data-name="Path 13" d="M365.968,461.444l1.134-1.716h1.1l-.415,1.716Z" transform="translate(1.187)" fill="#fff" stroke="#fff" stroke-width="1"/>
    <path id="Path_14" data-name="Path 14" d="M368.72,465.153v-1.07h1.091v1.07Z" fill="#fff" stroke="#fff" stroke-width="1"/>
    <path id="Path_15" data-name="Path 15" d="M374.244,460.582v-1.559h2.525l-.449,1.559Z" fill="#fff" stroke="#fff" stroke-width="1"/>
    <path id="Path_16" data-name="Path 16" d="M372.968,464.592v-.909h.586v.909Z" fill="#fff" stroke="#fff" stroke-width="1"/>
    <path id="Path_17" data-name="Path 17" d="M361.333,451.9v.707l.875.185v-.6l-.441-.636Z" fill="#fff" stroke="#fff" stroke-width="1"/>
    <path id="Path_18" data-name="Path 18" d="M359.889,474.257v.565h.455v-.565Z" transform="matrix(0.788, 0.616, -0.616, 0.788, 370.145, -121.387)" fill="#fff" stroke="#fff" stroke-width="1"/>
    <path id="Path_19" data-name="Path 19" d="M371.068,472.236v.691h.5v-.691Z" transform="translate(0 -1)" fill="#fff" stroke="#fff" stroke-width="1"/>
    <path id="Path_20" data-name="Path 20" d="M393.758,502.669v1.4h1.073v-1.4Z" transform="matrix(-0.259, 0.966, -0.966, -0.259, 983.973, 252.469)" fill="#fff" stroke="#fff" stroke-width="1"/>
    <path id="Path_21" data-name="Path 21" d="M388.61,508.45l2.765.856.5,3.069-2.576-1.283Z" transform="translate(0 -5)" fill="#fff" stroke="#fff" stroke-width="1"/>
    <path id="Path_22" data-name="Path 22" d="M395.215,511.249v1.4h1.416l.76-.8Z" fill="#fff" stroke="#fff" stroke-width="1"/>
    <path id="Path_23" data-name="Path 23" d="M319.729,486.426l.785,2.6h1.748v-2.022Z" fill="#fff" stroke="#fff" stroke-width="1"/>
    <path id="Path_24" data-name="Path 24" d="M325.574,490.5v.617h.975v-1.039Z" fill="#fff" stroke="#fff" stroke-width="1"/>
    <path id="Path_25" data-name="Path 25" d="M336.611,518.8l17.306,8.171s4.676,1.828,14.2,2.7,20.492-1.857,20.492-1.857a44.849,44.849,0,0,0,15.106-8.21c7.465-6.151,8.357-6.412,11.254-9.5a72.35,72.35,0,0,0,6.139-8.039,41.774,41.774,0,0,0,5.414-8.508,54.93,54.93,0,0,0,3.208-10.509c.455-2.213.6-4.575.923-5.383,1.141-2.9.424,7.048-2.08,16.5-1.306,4.93-5.762,12.708-7.464,15.11-.471.664-.939,1.485-1.577,2.288a52.871,52.871,0,0,1-4.562,5.6,83.431,83.431,0,0,1-9.94,8.128c-6.7,4.422-10.636,7.384-24.785,8.832s-27.942-3.093-27.942-3.093-9.2-3.716-11.714-6.913S336.611,518.8,336.611,518.8Z" fill="#b15800" stroke="#b15800" stroke-width="1"/>
    <path id="Path_26" data-name="Path 26" d="M290.218,506.271c-11.311,38.224-9.333,56.341-9.333,56.341s4.29,10.1,4.394,17.965-29.73,41.39-29.73,41.39l25.337-10.6s7.252-5.206,12.015-5.673,18.692-16.676,38.2-12.334,26.3,17.007,69.781,18.006,51.426-4.442,74.657-18.006,30.231-28.989,48.628-25.932,14.35-6.078,14.35-6.078-6.793-14.766.1-37.94S556.92,470.8,556.92,470.8s1.875-11.918,15.984-32.907,9.339-15.25,9.339-15.25-12.867-20.5-37.232-13.756S526.791,426.1,504.7,425.7s-21.73,1.219-21.73,1.219l7.037,8.929-59.474,33.1a35.4,35.4,0,0,1,.865,10.927c-.552,5.479-1.305,16.271-5.314,22.949s-9.207,13.75-14.318,17.859-8.664,7.771-14.487,10.132a53.739,53.739,0,0,1-18.83,4.321c-6.535.129-18.107-.865-23.394-2.543s-12.061-4.412-14.521-6.9a68.8,68.8,0,0,1-6.1-8.1s-8.349-7.385-8.349-8.144-13.928.978-20.891-.955-13.167-3.137-13.167-3.137h-1.447Z" fill="rgba(239,241,244,0.65)" stroke="#ccc" stroke-width="1"/>
    <path id="Path_27" data-name="Path 27" d="M443.686,461.444a66.514,66.514,0,0,1,13.634,2.371c6.312,1.951,10.938,5.351,12.38,7.866s1.914,6.958,1.878,9.182-1.342,14.051-3.374,16.576c-.5.624-.973,2.646-1.606,3.839a75.792,75.792,0,0,0-4.391,9.409c-2.069,5.431-6.61,13.818-9.286,15.814s-6.315,7.709-13.934,12-16.051,11.41-29.025,11.529-25.8.981-33.6-2.847-13.731-9.285-13.974-11.113-.975-2.769,0-2.439,14.859,2.016,18.407,1.3c2.431-.493,8.025-1.154,13.25-2.985,1.051-.367,2.827-1.142,4.489-1.75a20.023,20.023,0,0,0,4.034-2.279c1.3-1.24,2.147-1.4,4.746-3.564,2.09-1.741,4.848-3.841,7.38-6.323a63.325,63.325,0,0,0,6.148-7.34,39.686,39.686,0,0,0,4.221-6.4,48.6,48.6,0,0,0,4.87-13.817c1.982-10.487,1.828-17.2,1.174-18.789-.084-.2-.477-1.847-.588-2.325a.788.788,0,0,1,.588-1.043Z" fill="#dd2828" stroke="#dd2828" stroke-width="1"/>
    <path id="Path_28" data-name="Path 28" d="M361.487,517.425a35.97,35.97,0,0,1,1.941-9.332c1.9-6,2.141-7.113,2.814-7.96s5.862-2.8,5.862-2.8,1.473,1.667,3.3,3.671,4.295,3.58,5.42,10.884.869,6.089.869,6.089.2,1.266-2.731,1.176-10.859-.68-10.859-.68Z" fill="#dd2828" stroke="#dd2828" stroke-width="1"/>
    <path id="Path_29" data-name="Path 29" d="M385.453,491.212s2.936-1.067,7.072-2.51a59.958,59.958,0,0,0,7.138-2.808c6.3-3.136,9.243-4.659,11.309-6.447s3.074-2.8,3.074-2.8.747,4.447-.18,7.545-1.751,6.934-4.5,8.657-7,4.047-10.33,4.173a26.568,26.568,0,0,1-8.484-1.623,26.223,26.223,0,0,1-4.647-2.307Z" fill="#dd2828" stroke="#dd2828" stroke-width="1"/>
    <path id="Path_30" data-name="Path 30" d="M340.727,512.45a63.811,63.811,0,0,0,5.319,4c2.328,1.491,5.129,4.153,10.472,4.819s4.131,1.07,10.005,1.246,9.1-1.246,9.1-1.246-1.8,2.861-6.867,3.5-4.049,1.1-9.468,0-9.658-1.806-11.737-3.5S340.727,512.45,340.727,512.45Z" transform="translate(2)" fill="#fdd2ac" stroke="#fdd2ac" stroke-width="1"/>
    <path id="Path_32" data-name="Path 32" d="M271,566.253l1.237.928Z" fill="#ff5c5c" stroke="#ff5c5c" stroke-width="1"/>
    <path id="Path_31" data-name="Path 31" d="M269.913,557.517c7.576-13.618,24.782-17.614,24.782-17.614a62.3,62.3,0,0,1,8.4,0c2.348.362,1.131-.859,15.144,6.583s33.5,32.209,33.5,32.209,1.691,1.47,1.07,4.674-10.1,7.374-13.876,7.619-7.721-.034-14.937,3.226-7.484,6.843-12.13,5.705-9.022-6.414-14.1-14.242S272.1,567.106,272.1,567.106a14.249,14.249,0,0,0-2.182-1.149C267.58,564.788,269.913,557.517,269.913,557.517Z" fill="#ff5c5c" stroke="#ff5c5c" stroke-width="1"/>
    <path id="Path_33" data-name="Path 33" d="M281.2,558.753a27.75,27.75,0,0,1,1.54-3.259,13.79,13.79,0,0,1,2.084-2.9c2.138-2.174,5.241-5.9,11.633-6.469s6.755-4.978,11.83-2.74,8.812,2.119,10.557,3.433c1.083.816-2.487-.45-7.376-1.848a15.744,15.744,0,0,0-5.17-.459,22.707,22.707,0,0,0-5.2,1.164c-.721.242-1.418,1.247-2.743,1.485a18.956,18.956,0,0,1-2.524.487c-.565.077.061-.24-2.342.418-3.332.912-5.865,2.294-6.615,3.438-.224.341-1.679.964-2.6,2.14A36.586,36.586,0,0,0,281.2,558.753Z" transform="translate(1)" fill="#ffe2c4" stroke="#ffe2c4" stroke-width="1"/>
    <path id="Path_34" data-name="Path 34" d="M281.2,557.826a26.326,26.326,0,0,1,1.43-3.07,12.989,12.989,0,0,1,1.935-2.732c1.985-2.048,4.866-5.558,10.8-6.094s6.271-4.69,10.983-2.581,8.181,2,9.8,3.234c1.006.769-2.309-.424-6.847-1.741a14.41,14.41,0,0,0-4.8-.432,20.812,20.812,0,0,0-4.83,1.1c-.669.228-1.316,1.174-2.546,1.4a17.373,17.373,0,0,1-2.343.459c-.524.072.057-.226-2.174.394-3.094.859-5.445,2.161-6.141,3.239a16.313,16.313,0,0,0-2.41,2.016A34.579,34.579,0,0,0,281.2,557.826Z" transform="matrix(0.998, -0.07, 0.07, 0.998, -22.659, 32.108)" fill="#ffe2c4" stroke="#ffe2c4" stroke-width="1"/>
    <path id="Path_36" data-name="Path 36" d="M269.488,566.253a16.993,16.993,0,0,0-.914,7.238c.5,3.475.57,5.711,1.713,7.247s10.644,9.1,15.295,11.143,10.419,8.832,16.106,9.954c1.545.5.142-.063,1.309.49,2.327,1.095,3.715,1.814,11.287,1.675,10.151-.187,13.35.25,19.18-3.668a25.865,25.865,0,0,0,8.339-9.119,75.2,75.2,0,0,0-8.339.667c-4.748.634-6.315.254-12.038,3.932s-4,3.972-7.142,4.52-8.72-2.9-8.884-3.175-3.827-4.2-4.417-5.277-2.422-5.121-5.2-7.72a167.452,167.452,0,0,0-13.76-10.671C280.743,572.819,269.488,566.253,269.488,566.253Z" fill="#fafae8" stroke="#dee3e6" stroke-width="1"/>
    <path id="Path_35" data-name="Path 35" d="M281.2,555.642a23.683,23.683,0,0,1,1.11-2.625,11.177,11.177,0,0,1,1.5-2.336c1.541-1.751,3.777-4.752,8.384-5.211s4.868-4.01,8.526-2.207,6.351,1.707,7.608,2.765c.781.657-1.792-.363-5.315-1.489a10.187,10.187,0,0,0-3.726-.369,14.875,14.875,0,0,0-3.75.938c-.52.195-1.022,1-1.977,1.2a12.38,12.38,0,0,1-1.819.393c-.407.062.044-.193-1.688.337-2.4.735-4.227,1.848-4.767,2.77-.161.275-1.21.776-1.871,1.724A30.418,30.418,0,0,0,281.2,555.642Z" transform="matrix(0.999, -0.035, 0.035, 0.999, 15.582, 32.624)" fill="#ffe2c4" stroke="#ffe2c4" stroke-width="1"/>
    <path id="Path_37" data-name="Path 37" d="M269.913,557.517c7.576-13.618,24.782-17.614,24.782-17.614a62.3,62.3,0,0,1,8.4,0c2.348.362,1.131-.859,15.144,6.583s33.5,32.209,33.5,32.209,1.691,1.47,1.07,4.674-10.1,7.374-13.876,7.619-7.721-.034-14.937,3.226-7.484,6.843-12.13,5.705-9.022-6.414-14.1-14.242S272.1,567.106,272.1,567.106a14.249,14.249,0,0,0-2.182-1.149C267.58,564.788,269.913,557.517,269.913,557.517Z" transform="translate(-46 30)" fill="#ffde71" stroke="#ffde71" stroke-width="1"/>
    <path id="Path_38" data-name="Path 38" d="M269.488,566.253a16.993,16.993,0,0,0-.914,7.238c.5,3.475.57,5.711,1.713,7.247s10.644,9.1,15.295,11.143,10.419,8.832,16.106,9.954c1.545.5.142-.063,1.309.49,2.327,1.095,3.715,1.814,11.287,1.675,10.151-.187,13.35.25,19.18-3.668a25.865,25.865,0,0,0,8.339-9.119,75.2,75.2,0,0,0-8.339.667c-4.748.634-6.315.254-12.038,3.932s-4,3.972-7.142,4.52-8.72-2.9-8.884-3.175-3.827-4.2-4.417-5.277-2.422-5.121-5.2-7.72a167.452,167.452,0,0,0-13.76-10.671C280.743,572.819,269.488,566.253,269.488,566.253Z" transform="translate(-46 30)" fill="#fafae8" stroke="#dee3e6" stroke-width="1"/>
    <path id="Path_39" data-name="Path 39" d="M235.724,619.8s-1.925-5.352-.779-9.023,1.428-5.837,4.379-9.453,7.752-9.047,13.968-11.87,13.449-5.875,21.324-5.753,8.726,0,8.726,0l5.374,5.753a42.844,42.844,0,0,0-9.9,0c-4.006.694-12.631,1.12-18.166,5.431s-7.7,3.753-12.487,10.517-4.027,10.354-4.027,10.354a27.477,27.477,0,0,0,0,7.853C244.82,626.821,235.724,619.8,235.724,619.8Z" fill="#333" stroke="#333" stroke-width="1"/>
    <text id="_Arisa_Fukuzaki" data-name="©️Arisa Fukuzaki" transform="translate(431 627)" fill="#707070" font-size="13" font-family="AppleColorEmoji, Apple Color Emoji"><tspan x="0" y="0">©️</tspan><tspan y="0" font-family="HelveticaNeue, Helvetica Neue">Arisa Fukuzaki</tspan></text>
  </g>
</svg>
