<svg xmlns="http://www.w3.org/2000/svg" xmlns:xlink="http://www.w3.org/1999/xlink" width="768" height="1024" viewBox="0 0 768 1024">
  <defs>
    <clipPath id="clip-iPad_1">
      <rect width="768" height="1024"/>
    </clipPath>
  </defs>
  <g id="iPad_1" data-name="iPad – 1" clip-path="url(#clip-iPad_1)">
    <rect width="768" height="1024" fill="#fff"/>
    <path id="Path_8" data-name="Path 8" d="M139.414,550.618c48.856-53.6,118.124-66.367,188.017-66.5s120.561,14.749,149.41,41-33.386,45.762-11.8,67.992,61.456,26.4,84.362,35.047,38.251,21.077,35.573,27.059-19.573,26.837-54.125,30.767-60.724,17.161-131.532,12.839,4.874,7.723-146.4-16.781S139.414,550.618,139.414,550.618Z" transform="translate(-59 9)" fill="rgba(205,236,252,0.71)" stroke="rgba(205,236,252,0.71)" stroke-width="1"/>
    <path id="Path_9" data-name="Path 9" d="M728.907,546.979C951.219,528.786,976.636,443.442,970.84,390.093s-43.361-148.8-107.977-117.1S634.7,445.708,657.7,502.14,728.907,546.979,728.907,546.979Z" transform="translate(-516.548 -108.23)" fill="#f8f5e9" stroke="#f8f5e9" stroke-width="1" opacity="0.64"/>
    <path id="Path_6" data-name="Path 6" d="M753.8,284.544c305.52-50.31,121.462-79.917,130.052-128.412S1071.219-3.4,1165.106,101.84s-253.433,288.9-270.344,332.942S791.61,449.509,791.891,450.865,448.282,334.855,753.8,284.544Z" transform="translate(-549 134.41)" fill="#d6d3ff" stroke="#d6d3ff" stroke-width="1" opacity="0.435"/>
    <path id="Path_7" data-name="Path 7" d="M724.391,267.672c208.633,18.213,232.485,103.654,227.046,157.063S910.744,573.7,850.1,541.968,635.976,369.058,657.569,312.562,724.391,267.672,724.391,267.672Z" transform="translate(-266 98.71)" fill="#edddfa" stroke="#edddfa" stroke-width="1" opacity="0.64"/>
    <path id="Path_10" data-name="Path 10" d="M438.851,246.817c0,6.458-71.011,240.664-71.011,240.664s-5.556,12.479,1.772,13.816,373.974,80.718,373.974,80.718,11.8,1.4,11.358-8.592S815.277,316.67,809.519,309.9s-360.84-72.139-360.84-72.139S438.852,240.359,438.851,246.817Z" transform="translate(-164 128)" fill="#3c3c3c" stroke="#3c3c3c" stroke-width="1"/>
    <path id="Path_11" data-name="Path 11" d="M407.7,249.695l11.932,18.024-17.768,14.451-2.7-5.987,11.935-8.464-6.657-12.775Z" transform="translate(-112 171)" fill="#4bff67" stroke="#4bff67" stroke-width="1"/>
    <path id="Path_12" data-name="Path 12" d="M411.82,276.169l24.286,6.939-1.38,9.159-22.906-9.159Z" transform="translate(-111 183)" fill="#4bff67" stroke="#4bff67" stroke-width="1"/>
    <path id="Path_40" data-name="Path 40" d="M173.386,664.05s-2.933,8.152,0,22.809,8.887,25.11,18.712,33.5,10.888,11.647,20.4,12.318,15.629-2.36,24.145-12.318,15.746-26.486,18.017-30.835c1.052-2.448,1.186-7.369,2.183-13.7a96.572,96.572,0,0,0,1.161-13.33c0-8.286,3.589-15.71,0-29.774s-27.652-28.489-37.827-29.408-26.355-.2-32.223,4.613-14.792,13.86-16.991,20.645S173.386,664.05,173.386,664.05Z" transform="translate(-10 -52.09)" fill="#fcf3ed" stroke="#fcf3ed" stroke-width="1"/>
    <path id="Path_44" data-name="Path 44" d="M195.983,680.218s-.007-.01,1.3,5.169-3.385,12.669-3.385,12.669l30.118-.444s-2.9-6.386-3.4-9.332,4.954-17.628,4.954-17.628-5.988,7.137-11.007,8.771-9.668,2.542-12.281,2.329A31.141,31.141,0,0,1,195.983,680.218Z" fill="#fcf3ed" stroke="#fcf3ed" stroke-width="1"/>
    <path id="Path_45" data-name="Path 45" d="M196.984,682.882c5.7,3.33,3.6,2.225,5.277,2.714s6.694-1.312,7.394-1.5,7.462-3.294,7.462-3.294l8.4-9.569s-5.773,5.419-8.4,6.876-11.448,3.767-11.448,3.767a18.4,18.4,0,0,1-3.408,0c-1.171-.2-6.911-2.062-6.911-2.062Z" fill="#fad5b5" stroke="#fad5b5" stroke-width="1"/>
    <path id="Path_47" data-name="Path 47" d="M285.92,776.209l26.091-8.621s10.253-4.127,19.29-2.883,18.071,2.2,18.9,8.841-3.595,15.531-9.266,17.737-15.216,3.956-28.922,3.2a225.723,225.723,0,0,0-28.351.579,22.083,22.083,0,0,0,1.193-4.7C284.853,788.973,285.92,776.209,285.92,776.209Z" transform="translate(-1 4.049)" fill="#fcf3ed" stroke="#fcf3ed" stroke-width="1"/>
    <path id="Path_48" data-name="Path 48" d="M224.146,695.855s21.064,1.133,27.389,0,15.406-4.6,31.536-4.306,24.4,7.038,27.617,10.459,1.556,3.813,11.144,12.224,12.606,5.646,14.793,14.225-4.466,3.128,5.473,12.1,11.049,9.286,9.006,12.989-6.993,4.943-2.833,7.475,21.415,1.755,21.89,8.889c.114,1.719,1.122,3.813,1.289,5.432.4,3.852-.243,5.805-2.313,9.335-2.728,4.651-15.05,11.862-20.866,12.02s-9.417-.625-6.173-2.1,7.864-9.92,7.864-9.92.972-3.515,0-5.31-6.221-6.843-18.658-6.261-21.64,2.342-30.154,5.221-12.685,4.055-14.165,4.11-2.635,0-2.635,0l7.455-75.294s.572-8.185,0-8.409-67.125-1.1-67.125-1.1Z" fill="#761212" stroke="#761212" stroke-width="1"/>
    <path id="Path_49" data-name="Path 49" d="M349.311,695.855s-17.884,1.133-23.255,0-13.08-4.6-26.776-4.306-20.716,7.038-23.449,10.459-1.321,3.813-9.462,12.224-10.7,5.646-12.56,14.225,3.792,3.128-4.647,12.1-9.381,9.286-7.647,12.989,5.938,4.943,2.405,7.475-18.183,1.755-18.585,8.889c-.1,1.719-.953,3.813-1.095,5.432-.338,3.852.206,5.805,1.964,9.335,2.316,4.651,12.778,11.862,17.716,12.02s8-.625,5.241-2.1-6.677-9.92-6.677-9.92-.826-3.515,0-5.31,5.282-6.843,15.842-6.261,18.374,2.342,25.6,5.221,10.77,4.055,12.027,4.11,2.237,0,2.237,0l-6.33-75.294s-.486-8.185,0-8.409,56.993-1.1,56.993-1.1Z" transform="translate(-155.005)" fill="#761212" stroke="#761212" stroke-width="1"/>
    <path id="Path_43" data-name="Path 43" d="M396.477,241c0,2.309-29.808,86.036-29.808,86.036s-2.332,4.461.744,4.939S524.4,360.83,524.4,360.83s4.954.5,4.768-3.072,25.326-91.787,22.909-94.207S400.6,237.763,400.6,237.763,396.478,238.691,396.477,241Z" transform="translate(-295.132 525.894) rotate(-9)" fill="#bababa" stroke="#bababa" stroke-width="1"/>
    <g id="Ellipse_11" data-name="Ellipse 11" transform="translate(198 738)" fill="#fff" stroke="#fff" stroke-width="1">
      <circle cx="12" cy="12" r="12" stroke="none"/>
      <circle cx="12" cy="12" r="11.5" fill="none"/>
    </g>
    <path id="Path_50" data-name="Path 50" d="M223.909,697.309l-.452-2s5.384.694,8.624.808,6.472,0,6.472,0l-.533,1.193Z" transform="translate(0.368 -0.028)" fill="#fcf3ed" stroke="#fcf3ed" stroke-width="1"/>
    <path id="Path_51" data-name="Path 51" d="M194.238,697.2l1.047-1.822s-9.55,1.047-15.092.979-6.668-.154-6.668-.154l.842,1Z" transform="translate(0 -0.101)" fill="#fcf3ed" stroke="#fcf3ed" stroke-width="1"/>
    <path id="Path_52" data-name="Path 52" d="M117.98,796.12l-22.014-1.073s-3.312-1.821-4.38-3.959-3.8-5.264-3.839-5.936-1.751-1.248,0-4.745,7.112-6.263,8.814-6.547a64.913,64.913,0,0,1,11.172,0c2.667.356,12.425,2.056,12.425,2.056s-3.183,16.9-3.111,17.817A7.705,7.705,0,0,0,117.98,796.12Z" fill="#fcf3ed" stroke="#fcf3ed" stroke-width="1"/>
    <path id="Path_53" data-name="Path 53" d="M304.124,739.8s8.855-1.189,13.03,0,15.863-4.414,15.863-4.414h3.819l3.5,3.463a12.59,12.59,0,0,0-7.848,0c-4,1.434-8.417,7.208-8.417,7.208s-4.876-2.662-8.253-2.581-6.355,0-6.355,0Z" fill="#500202" stroke="#500202" stroke-width="1"/>
    <path id="Path_54" data-name="Path 54" d="M304.124,736.759a45.1,45.1,0,0,1,7.288,0c2.335.37,8.872-1.375,8.872-1.375h2.136l1.96,1.079a12.4,12.4,0,0,0-4.39,0,14.706,14.706,0,0,0-4.707,2.245,19.191,19.191,0,0,0-4.616-.8c-1.889.025-3.554,0-3.554,0Z" transform="translate(-161.012 122.918) rotate(-14)" fill="#500202" stroke="#500202" stroke-width="1"/>
    <path id="Path_55" data-name="Path 55" d="M304.124,738.4s6.327-.811,9.31,0,11.334-3.011,11.334-3.011H327.5l2.5,2.363a9.4,9.4,0,0,0-5.608,0c-2.856.978-6.014,4.917-6.014,4.917s-3.484-1.816-5.9-1.761-4.541,0-4.541,0Z" transform="translate(-457.396 180.971) rotate(-21)" fill="#500202" stroke="#500202" stroke-width="1"/>
    <text id="_Arisa_Fukuzaki" data-name="©️Arisa Fukuzaki" transform="translate(485 744)" fill="#707070" font-size="13" font-family="AppleColorEmoji, Apple Color Emoji"><tspan x="0" y="0">©️</tspan><tspan y="0" font-family="Helvetica">Arisa Fukuzaki</tspan></text>
    <g id="Ellipse_12" data-name="Ellipse 12" transform="translate(286 384)" fill="#ff4545" stroke="#ff4545" stroke-width="1">
      <circle cx="9" cy="9" r="9" stroke="none"/>
      <circle cx="9" cy="9" r="8.5" fill="none"/>
    </g>
    <g id="Ellipse_13" data-name="Ellipse 13" transform="translate(311 389)" fill="#969696" stroke="#727272" stroke-width="1">
      <circle cx="9" cy="9" r="9" stroke="none"/>
      <circle cx="9" cy="9" r="8.5" fill="none"/>
    </g>
    <g id="Ellipse_14" data-name="Ellipse 14" transform="translate(336 393)" fill="#28b238" stroke="#115719" stroke-width="1">
      <circle cx="9" cy="9" r="9" stroke="none"/>
      <circle cx="9" cy="9" r="8.5" fill="none"/>
    </g>
    <path id="Path_56" data-name="Path 56" d="M177.508,578.748s4.677,15.771,8.595,20.143c.49.546,1.141,1.4,1.687,2.151,3.125,2.677,2.057,4.513,14.756,8.2,7.924,2.3,10.868,3.105,13.312,3.9a19.164,19.164,0,0,0,5.993,1.352c5.007.38,3.5.318,5.239.514a23.258,23.258,0,0,0,4.684.5c5.433.841,9.885,5.825,11.238,9.278s3.523,6.524,2.55,15.837-1.264,13.606-2.55,18.569-6.823,17.052-7.325,24.963-1.473,8.622,0,14.928a114,114,0,0,0,3.606,12.064s-5.3-14.867,0-30.5,5.466-12.4,9.392-22.568,6.961-14.419,9.08-23.031,4.876-15.19,4.959-19.541a106.556,106.556,0,0,0-1.778-23.9c-2.108-10.4-2.48-13.116-5.5-20.6-2.035-5.046-3.427-8.394-6.761-10.807-1.225-.889-5.209-2.881-7.419-4.4-2.732-1.881-2.206-3.293-4.91-6.084-3.413-3.527-8.852-6.239-18.313-7.7-15.848-2.439-21.742-1.557-34.605,2.775s-27.162,23.187-27.374,23.26-8.77,18.05-5.881,31.383.776,19.042,5.881,26.908,6.127,7.9,6.127,7.9a18.053,18.053,0,0,1,.89-5.413c.965-3.074-2.8-7.3-2.479-20.868s.963-20.6,7.012-27.494,8.482-8.214,8.482-8.214Z" transform="translate(-1 -13.045)" fill="#5a4935" stroke="#5a4935" stroke-width="1"/>
    <path id="Path_57" data-name="Path 57" d="M259.532,616.2s10.611,1.569,16.506,7.224,8.081,10.64,8.573,15.595-4.181,11.8-4.558,16.763-.969,10.7,0,14.188,1.7,7.42,1.7,7.42a126.339,126.339,0,0,0-14.837.9c-6.656.92-6.721,1.468-12.623,2.123s-9.233.7-9.233.7a26,26,0,0,1,3.884-12.323c3.9-6.428,4.556-11.405,4.433-14.546s1.088-8.867-.986-12.837S259.532,616.2,259.532,616.2Z" transform="translate(-4.562 14.382)" fill="#5a4935" stroke="#5a4935" stroke-width="1"/>
  </g>
</svg>
